<ttFont>
    <TTGlyph name=".notdef" xMin="50" yMin="0" xMax="450" yMax="700">
      <contour>
        <pt x="50" y="700" on="1"/>
        <pt x="450" y="700" on="1"/>
        <pt x="450" y="0" on="1"/>
        <pt x="50" y="0" on="1"/>
      </contour>
      <contour>
        <pt x="400" y="50" on="1"/>
        <pt x="400" y="650" on="1"/>
        <pt x="100" y="650" on="1"/>
        <pt x="100" y="50" on="1"/>
      </contour>
    </TTGlyph>
    <TTGlyph name="A" xMin="135" yMin="199" xMax="405" yMax="705">
      <contour>
        <pt x="405" y="327" on="1"/>
        <pt x="405" y="262" on="0"/>
        <pt x="336" y="199" on="0"/>
        <pt x="279" y="199" on="1"/>
        <pt x="261" y="199" on="1"/>
        <pt x="204" y="199" on="0"/>
        <pt x="135" y="262" on="0"/>
        <pt x="135" y="327" on="1"/>
        <pt x="135" y="577" on="1"/>
        <pt x="135" y="642" on="0"/>
        <pt x="204" y="705" on="0"/>
        <pt x="261" y="705" on="1"/>
        <pt x="279" y="705" on="1"/>
        <pt x="336" y="705" on="0"/>
        <pt x="405" y="642" on="0"/>
        <pt x="405" y="577" on="1"/>
        <pt x="405" y="327" on="1"/>
      </contour>
      <contour>
        <pt x="331" y="584" on="1"/>
        <pt x="331" y="607" on="0"/>
        <pt x="307" y="641" on="0"/>
        <pt x="279" y="641" on="1"/>
        <pt x="261" y="641" on="1"/>
        <pt x="233" y="641" on="0"/>
        <pt x="209" y="607" on="0"/>
        <pt x="209" y="584" on="1"/>
        <pt x="209" y="320" on="1"/>
        <pt x="209" y="297" on="0"/>
        <pt x="233" y="263" on="0"/>
        <pt x="261" y="263" on="1"/>
        <pt x="279" y="263" on="1"/>
        <pt x="307" y="263" on="0"/>
        <pt x="331" y="297" on="0"/>
        <pt x="331" y="320" on="1"/>
      </contour>
    </TTGlyph>
    <TTGlyph name="AE" xMin="220" yMin="260" xMax="320" yMax="360">
      <contour>
        <pt x="220" y="260" on="1"/>
        <pt x="220" y="360" on="1"/>
        <pt x="320" y="360" on="1"/>
        <pt x="320" y="260" on="1"/>
      </contour>
    </TTGlyph>
    <TTGlyph name="Aacute" xMin="220" yMin="260" xMax="320" yMax="360">
      <contour>
        <pt x="220" y="260" on="1"/>
        <pt x="220" y="360" on="1"/>
        <pt x="320" y="360" on="1"/>
        <pt x="320" y="260" on="1"/>
      </contour>
    </TTGlyph>
    <TTGlyph name="Acircumflex" xMin="220" yMin="260" xMax="320" yMax="360">
      <contour>
        <pt x="220" y="260" on="1"/>
        <pt x="220" y="360" on="1"/>
        <pt x="320" y="360" on="1"/>
        <pt x="320" y="260" on="1"/>
      </contour>
    </TTGlyph>
    <TTGlyph name="Adieresis" xMin="220" yMin="260" xMax="320" yMax="360">
      <contour>
        <pt x="220" y="260" on="1"/>
        <pt x="220" y="360" on="1"/>
        <pt x="320" y="360" on="1"/>
        <pt x="320" y="260" on="1"/>
      </contour>
    </TTGlyph>
    <TTGlyph name="Agrave" xMin="220" yMin="260" xMax="320" yMax="360">
      <contour>
        <pt x="220" y="260" on="1"/>
        <pt x="220" y="360" on="1"/>
        <pt x="320" y="360" on="1"/>
        <pt x="320" y="260" on="1"/>
      </contour>
    </TTGlyph>
    <TTGlyph name="Aring" xMin="220" yMin="260" xMax="320" yMax="360">
      <contour>
        <pt x="220" y="260" on="1"/>
        <pt x="220" y="360" on="1"/>
        <pt x="320" y="360" on="1"/>
        <pt x="320" y="260" on="1"/>
      </contour>
    </TTGlyph>
    <TTGlyph name="Atilde" xMin="220" yMin="260" xMax="320" yMax="360">
      <contour>
        <pt x="220" y="260" on="1"/>
        <pt x="220" y="360" on="1"/>
        <pt x="320" y="360" on="1"/>
        <pt x="320" y="260" on="1"/>
      </contour>
    </TTGlyph>
    <TTGlyph name="B" xMin="146" yMin="205" xMax="393" yMax="700">
      <contour>
        <pt x="154" y="205" on="1"/>
        <pt x="154" y="269" on="1"/>
        <pt x="245" y="269" on="1"/>
        <pt x="245" y="633" on="1"/>
        <pt x="146" y="594" on="1"/>
        <pt x="146" y="662" on="1"/>
        <pt x="237" y="700" on="1"/>
        <pt x="319" y="700" on="1"/>
        <pt x="319" y="269" on="1"/>
        <pt x="393" y="269" on="1"/>
        <pt x="393" y="205" on="1"/>
      </contour>
    </TTGlyph>
    <TTGlyph name="C" xMin="150" yMin="205" xMax="390" yMax="700">
      <contour>
        <pt x="150" y="205" on="1"/>
        <pt x="150" y="278" on="1"/>
        <pt x="262" y="431" on="1"/>
        <pt x="278" y="452" on="0"/>
        <pt x="297" y="481" on="0"/>
        <pt x="308" y="505" on="0"/>
        <pt x="312" y="532" on="0"/>
        <pt x="312" y="551" on="1"/>
        <pt x="312" y="587" on="1"/>
        <pt x="312" y="610" on="0"/>
        <pt x="284" y="636" on="0"/>
        <pt x="251" y="636" on="1"/>
        <pt x="165" y="636" on="1"/>
        <pt x="165" y="700" on="1"/>
        <pt x="244" y="700" on="1"/>
        <pt x="319" y="700" on="0"/>
        <pt x="385" y="643" on="0"/>
        <pt x="385" y="581" on="1"/>
        <pt x="385" y="558" on="1"/>
        <pt x="385" y="527" on="0"/>
        <pt x="379" y="487" on="0"/>
        <pt x="367" y="457" on="0"/>
        <pt x="346" y="428" on="0"/>
        <pt x="331" y="408" on="1"/>
        <pt x="228" y="269" on="1"/>
        <pt x="390" y="269" on="1"/>
        <pt x="390" y="205" on="1"/>
      </contour>
    </TTGlyph>
    <TTGlyph name="Ccedilla" xMin="220" yMin="260" xMax="320" yMax="360">
      <contour>
        <pt x="220" y="260" on="1"/>
        <pt x="220" y="360" on="1"/>
        <pt x="320" y="360" on="1"/>
        <pt x="320" y="260" on="1"/>
      </contour>
    </TTGlyph>
    <TTGlyph name="D" xMin="158" yMin="205" xMax="381" yMax="700">
      <contour>
        <pt x="381" y="324" on="1"/>
        <pt x="381" y="261" on="0"/>
        <pt x="323" y="205" on="0"/>
        <pt x="254" y="205" on="1"/>
        <pt x="158" y="205" on="1"/>
        <pt x="158" y="269" on="1"/>
        <pt x="251" y="269" on="1"/>
        <pt x="277" y="269" on="0"/>
        <pt x="307" y="290" on="0"/>
        <pt x="307" y="319" on="1"/>
        <pt x="307" y="374" on="1"/>
        <pt x="307" y="399" on="0"/>
        <pt x="276" y="426" on="0"/>
        <pt x="252" y="426" on="1"/>
        <pt x="181" y="426" on="1"/>
        <pt x="181" y="490" on="1"/>
        <pt x="244" y="490" on="1"/>
        <pt x="267" y="490" on="0"/>
        <pt x="299" y="516" on="0"/>
        <pt x="299" y="542" on="1"/>
        <pt x="299" y="584" on="1"/>
        <pt x="299" y="613" on="0"/>
        <pt x="273" y="636" on="0"/>
        <pt x="244" y="636" on="1"/>
        <pt x="158" y="636" on="1"/>
        <pt x="158" y="700" on="1"/>
        <pt x="245" y="700" on="1"/>
        <pt x="308" y="700" on="0"/>
        <pt x="374" y="645" on="0"/>
        <pt x="374" y="583" on="1"/>
        <pt x="374" y="548" on="1"/>
        <pt x="374" y="519" on="0"/>
        <pt x="350" y="475" on="0"/>
        <pt x="330" y="461" on="1"/>
        <pt x="354" y="448" on="0"/>
        <pt x="381" y="403" on="0"/>
        <pt x="381" y="369" on="1"/>
        <pt x="381" y="324" on="1"/>
      </contour>
    </TTGlyph>
    <TTGlyph name="Delta" xMin="220" yMin="260" xMax="320" yMax="360">
      <contour>
        <pt x="220" y="260" on="1"/>
        <pt x="220" y="360" on="1"/>
        <pt x="320" y="360" on="1"/>
        <pt x="320" y="260" on="1"/>
      </contour>
    </TTGlyph>
    <TTGlyph name="E" xMin="134" yMin="205" xMax="405" yMax="700">
      <contour>
        <pt x="355" y="322" on="1"/>
        <pt x="355" y="205" on="1"/>
        <pt x="281" y="205" on="1"/>
        <pt x="281" y="322" on="1"/>
        <pt x="134" y="322" on="1"/>
        <pt x="134" y="396" on="1"/>
        <pt x="208" y="700" on="1"/>
        <pt x="277" y="700" on="1"/>
        <pt x="204" y="386" on="1"/>
        <pt x="281" y="386" on="1"/>
        <pt x="288" y="529" on="1"/>
        <pt x="355" y="529" on="1"/>
        <pt x="355" y="386" on="1"/>
        <pt x="405" y="386" on="1"/>
        <pt x="405" y="322" on="1"/>
      </contour>
    </TTGlyph>
    <TTGlyph name="Eacute" xMin="220" yMin="260" xMax="320" yMax="360">
      <contour>
        <pt x="220" y="260" on="1"/>
        <pt x="220" y="360" on="1"/>
        <pt x="320" y="360" on="1"/>
        <pt x="320" y="260" on="1"/>
      </contour>
    </TTGlyph>
    <TTGlyph name="Ecircumflex" xMin="220" yMin="260" xMax="320" yMax="360">
      <contour>
        <pt x="220" y="260" on="1"/>
        <pt x="220" y="360" on="1"/>
        <pt x="320" y="360" on="1"/>
        <pt x="320" y="260" on="1"/>
      </contour>
    </TTGlyph>
    <TTGlyph name="Edieresis" xMin="220" yMin="260" xMax="320" yMax="360">
      <contour>
        <pt x="220" y="260" on="1"/>
        <pt x="220" y="360" on="1"/>
        <pt x="320" y="360" on="1"/>
        <pt x="320" y="260" on="1"/>
      </contour>
    </TTGlyph>
    <TTGlyph name="Egrave" xMin="220" yMin="260" xMax="320" yMax="360">
      <contour>
        <pt x="220" y="260" on="1"/>
        <pt x="220" y="360" on="1"/>
        <pt x="320" y="360" on="1"/>
        <pt x="320" y="260" on="1"/>
      </contour>
    </TTGlyph>
    <TTGlyph name="Eth" xMin="220" yMin="260" xMax="320" yMax="360">
      <contour>
        <pt x="220" y="260" on="1"/>
        <pt x="220" y="360" on="1"/>
        <pt x="320" y="360" on="1"/>
        <pt x="320" y="260" on="1"/>
      </contour>
    </TTGlyph>
    <TTGlyph name="Euro" xMin="220" yMin="260" xMax="320" yMax="360">
      <contour>
        <pt x="220" y="260" on="1"/>
        <pt x="220" y="360" on="1"/>
        <pt x="320" y="360" on="1"/>
        <pt x="320" y="260" on="1"/>
      </contour>
    </TTGlyph>
    <TTGlyph name="F" xMin="156" yMin="205" xMax="384" yMax="700">
      <contour>
        <pt x="384" y="324" on="1"/>
        <pt x="384" y="261" on="0"/>
        <pt x="325" y="205" on="0"/>
        <pt x="257" y="205" on="1"/>
        <pt x="156" y="205" on="1"/>
        <pt x="156" y="269" on="1"/>
        <pt x="254" y="269" on="1"/>
        <pt x="310" y="269" on="0"/>
        <pt x="310" y="321" on="1"/>
        <pt x="310" y="392" on="1"/>
        <pt x="310" y="417" on="0"/>
        <pt x="279" y="445" on="0"/>
        <pt x="255" y="445" on="1"/>
        <pt x="164" y="445" on="1"/>
        <pt x="164" y="700" on="1"/>
        <pt x="374" y="700" on="1"/>
        <pt x="374" y="637" on="1"/>
        <pt x="237" y="637" on="1"/>
        <pt x="237" y="509" on="1"/>
        <pt x="261" y="509" on="1"/>
        <pt x="316" y="509" on="0"/>
        <pt x="384" y="453" on="0"/>
        <pt x="384" y="390" on="1"/>
        <pt x="384" y="324" on="1"/>
      </contour>
    </TTGlyph>
    <TTGlyph name="G" xMin="137" yMin="205" xMax="402" yMax="700">
      <contour>
        <pt x="402" y="333" on="1"/>
        <pt x="402" y="269" on="0"/>
        <pt x="332" y="205" on="0"/>
        <pt x="284" y="205" on="1"/>
        <pt x="255" y="205" on="1"/>
        <pt x="207" y="205" on="0"/>
        <pt x="137" y="269" on="0"/>
        <pt x="137" y="333" on="1"/>
        <pt x="137" y="567" on="1"/>
        <pt x="137" y="632" on="0"/>
        <pt x="205" y="700" on="0"/>
        <pt x="270" y="700" on="1"/>
        <pt x="367" y="700" on="1"/>
        <pt x="367" y="636" on="1"/>
        <pt x="268" y="636" on="1"/>
        <pt x="239" y="636" on="0"/>
        <pt x="210" y="607" on="0"/>
        <pt x="210" y="584" on="1"/>
        <pt x="210" y="520" on="1"/>
        <pt x="274" y="520" on="1"/>
        <pt x="337" y="520" on="0"/>
        <pt x="402" y="462" on="0"/>
        <pt x="402" y="397" on="1"/>
        <pt x="402" y="333" on="1"/>
      </contour>
      <contour>
        <pt x="210" y="456" on="1"/>
        <pt x="210" y="326" on="1"/>
        <pt x="210" y="303" on="0"/>
        <pt x="230" y="269" on="0"/>
        <pt x="259" y="269" on="1"/>
        <pt x="280" y="269" on="1"/>
        <pt x="309" y="269" on="0"/>
        <pt x="329" y="303" on="0"/>
        <pt x="329" y="326" on="1"/>
        <pt x="329" y="404" on="1"/>
        <pt x="329" y="427" on="0"/>
        <pt x="303" y="456" on="0"/>
        <pt x="274" y="456" on="1"/>
      </contour>
    </TTGlyph>
    <TTGlyph name="H" xMin="155" yMin="205" xMax="384" yMax="700">
      <contour>
        <pt x="266" y="205" on="1"/>
        <pt x="192" y="205" on="1"/>
        <pt x="314" y="635" on="1"/>
        <pt x="155" y="635" on="1"/>
        <pt x="155" y="700" on="1"/>
        <pt x="384" y="700" on="1"/>
        <pt x="384" y="619" on="1"/>
      </contour>
    </TTGlyph>
    <TTGlyph name="I" xMin="131" yMin="205" xMax="409" yMax="700">
      <contour>
        <pt x="409" y="324" on="1"/>
        <pt x="409" y="261" on="0"/>
        <pt x="340" y="205" on="0"/>
        <pt x="272" y="205" on="1"/>
        <pt x="268" y="205" on="1"/>
        <pt x="200" y="205" on="0"/>
        <pt x="131" y="261" on="0"/>
        <pt x="131" y="324" on="1"/>
        <pt x="131" y="371" on="1"/>
        <pt x="131" y="437" on="0"/>
        <pt x="179" y="463" on="1"/>
        <pt x="140" y="491" on="0"/>
        <pt x="140" y="550" on="1"/>
        <pt x="140" y="583" on="1"/>
        <pt x="140" y="645" on="0"/>
        <pt x="211" y="700" on="0"/>
        <pt x="268" y="700" on="1"/>
        <pt x="272" y="700" on="1"/>
        <pt x="299" y="700" on="0"/>
        <pt x="346" y="687" on="0"/>
        <pt x="381" y="658" on="0"/>
        <pt x="400" y="614" on="0"/>
        <pt x="400" y="583" on="1"/>
        <pt x="400" y="550" on="1"/>
        <pt x="400" y="491" on="0"/>
        <pt x="361" y="463" on="1"/>
        <pt x="409" y="437" on="0"/>
        <pt x="409" y="371" on="1"/>
        <pt x="409" y="324" on="1"/>
      </contour>
      <contour>
        <pt x="336" y="376" on="1"/>
        <pt x="336" y="401" on="0"/>
        <pt x="309" y="429" on="0"/>
        <pt x="284" y="429" on="1"/>
        <pt x="257" y="429" on="1"/>
        <pt x="232" y="429" on="0"/>
        <pt x="204" y="401" on="0"/>
        <pt x="204" y="376" on="1"/>
        <pt x="204" y="322" on="1"/>
        <pt x="204" y="268" on="0"/>
        <pt x="253" y="268" on="1"/>
        <pt x="281" y="268" on="1"/>
        <pt x="310" y="268" on="0"/>
        <pt x="336" y="293" on="0"/>
        <pt x="336" y="322" on="1"/>
        <pt x="336" y="376" on="1"/>
      </contour>
      <contour>
        <pt x="256" y="637" on="1"/>
        <pt x="230" y="637" on="0"/>
        <pt x="212" y="609" on="0"/>
        <pt x="212" y="583" on="1"/>
        <pt x="212" y="541" on="1"/>
        <pt x="212" y="517" on="0"/>
        <pt x="237" y="494" on="0"/>
        <pt x="258" y="492" on="1"/>
        <pt x="277" y="492" on="1"/>
        <pt x="300" y="492" on="0"/>
        <pt x="328" y="515" on="0"/>
        <pt x="328" y="541" on="1"/>
        <pt x="328" y="583" on="1"/>
        <pt x="328" y="612" on="0"/>
        <pt x="306" y="637" on="0"/>
        <pt x="278" y="637" on="1"/>
      </contour>
    </TTGlyph>
    <TTGlyph name="Iacute" xMin="220" yMin="260" xMax="320" yMax="360">
      <contour>
        <pt x="220" y="260" on="1"/>
        <pt x="220" y="360" on="1"/>
        <pt x="320" y="360" on="1"/>
        <pt x="320" y="260" on="1"/>
      </contour>
    </TTGlyph>
    <TTGlyph name="Icircumflex" xMin="220" yMin="260" xMax="320" yMax="360">
      <contour>
        <pt x="220" y="260" on="1"/>
        <pt x="220" y="360" on="1"/>
        <pt x="320" y="360" on="1"/>
        <pt x="320" y="260" on="1"/>
      </contour>
    </TTGlyph>
    <TTGlyph name="Idieresis" xMin="220" yMin="260" xMax="320" yMax="360">
      <contour>
        <pt x="220" y="260" on="1"/>
        <pt x="220" y="360" on="1"/>
        <pt x="320" y="360" on="1"/>
        <pt x="320" y="260" on="1"/>
      </contour>
    </TTGlyph>
    <TTGlyph name="Igrave" xMin="220" yMin="260" xMax="320" yMax="360">
      <contour>
        <pt x="220" y="260" on="1"/>
        <pt x="220" y="360" on="1"/>
        <pt x="320" y="360" on="1"/>
        <pt x="320" y="260" on="1"/>
      </contour>
    </TTGlyph>
    <TTGlyph name="J" xMin="137" yMin="206" xMax="402" yMax="701">
      <contour>
        <pt x="137" y="573" on="1"/>
        <pt x="137" y="605" on="0"/>
        <pt x="156" y="653" on="0"/>
        <pt x="188" y="685" on="0"/>
        <pt x="231" y="701" on="0"/>
        <pt x="255" y="701" on="1"/>
        <pt x="284" y="701" on="1"/>
        <pt x="308" y="701" on="0"/>
        <pt x="351" y="685" on="0"/>
        <pt x="383" y="653" on="0"/>
        <pt x="402" y="605" on="0"/>
        <pt x="402" y="573" on="1"/>
        <pt x="402" y="339" on="1"/>
        <pt x="402" y="274" on="0"/>
        <pt x="335" y="206" on="0"/>
        <pt x="270" y="206" on="1"/>
        <pt x="172" y="206" on="1"/>
        <pt x="172" y="270" on="1"/>
        <pt x="272" y="270" on="1"/>
        <pt x="301" y="270" on="0"/>
        <pt x="330" y="299" on="0"/>
        <pt x="330" y="322" on="1"/>
        <pt x="330" y="389" on="1"/>
        <pt x="265" y="389" on="1"/>
        <pt x="202" y="389" on="0"/>
        <pt x="137" y="447" on="0"/>
        <pt x="137" y="512" on="1"/>
        <pt x="137" y="573" on="1"/>
      </contour>
      <contour>
        <pt x="330" y="453" on="1"/>
        <pt x="330" y="580" on="1"/>
        <pt x="330" y="603" on="0"/>
        <pt x="309" y="637" on="0"/>
        <pt x="280" y="637" on="1"/>
        <pt x="259" y="637" on="1"/>
        <pt x="230" y="637" on="0"/>
        <pt x="210" y="603" on="0"/>
        <pt x="210" y="580" on="1"/>
        <pt x="210" y="505" on="1"/>
        <pt x="210" y="482" on="0"/>
        <pt x="236" y="453" on="0"/>
        <pt x="265" y="453" on="1"/>
      </contour>
    </TTGlyph>
    <TTGlyph name="K" xMin="97" yMin="137" xMax="443" yMax="483">
      <contour>
        <pt x="270" y="253" on="1"/>
        <pt x="153" y="137" on="1"/>
        <pt x="97" y="193" on="1"/>
        <pt x="213" y="310" on="1"/>
        <pt x="97" y="427" on="1"/>
        <pt x="153" y="483" on="1"/>
        <pt x="270" y="367" on="1"/>
        <pt x="387" y="483" on="1"/>
        <pt x="443" y="427" on="1"/>
        <pt x="327" y="310" on="1"/>
        <pt x="443" y="193" on="1"/>
        <pt x="387" y="137" on="1"/>
      </contour>
    </TTGlyph>
    <TTGlyph name="L" xMin="43" yMin="0" xMax="497" yMax="700">
      <contour>
        <pt x="122" y="0" on="1"/>
        <pt x="122" y="625" on="1"/>
        <pt x="43" y="625" on="1"/>
        <pt x="43" y="700" on="1"/>
        <pt x="497" y="700" on="1"/>
        <pt x="497" y="625" on="1"/>
        <pt x="406" y="625" on="1"/>
        <pt x="406" y="105" on="1"/>
        <pt x="406" y="89" on="0"/>
        <pt x="419" y="75" on="0"/>
        <pt x="439" y="75" on="1"/>
        <pt x="454" y="75" on="1"/>
        <pt x="454" y="0" on="1"/>
        <pt x="404" y="0" on="1"/>
        <pt x="389" y="0" on="0"/>
        <pt x="359" y="10" on="0"/>
        <pt x="335" y="33" on="0"/>
        <pt x="319" y="72" on="0"/>
        <pt x="319" y="100" on="1"/>
        <pt x="319" y="625" on="1"/>
        <pt x="209" y="625" on="1"/>
        <pt x="209" y="0" on="1"/>
      </contour>
    </TTGlyph>
    <TTGlyph name="Lslash" xMin="220" yMin="260" xMax="320" yMax="360">
      <contour>
        <pt x="220" y="260" on="1"/>
        <pt x="220" y="360" on="1"/>
        <pt x="320" y="360" on="1"/>
        <pt x="320" y="260" on="1"/>
      </contour>
    </TTGlyph>
    <TTGlyph name="M" xMin="77" yMin="-170" xMax="462" yMax="700">
      <contour>
        <pt x="77" y="-170" on="1"/>
        <pt x="77" y="-76" on="1"/>
        <pt x="245" y="267" on="1"/>
        <pt x="90" y="605" on="1"/>
        <pt x="90" y="700" on="1"/>
        <pt x="451" y="700" on="1"/>
        <pt x="451" y="625" on="1"/>
        <pt x="178" y="625" on="1"/>
        <pt x="340" y="267" on="1"/>
        <pt x="163" y="-96" on="1"/>
        <pt x="462" y="-96" on="1"/>
        <pt x="462" y="-170" on="1"/>
      </contour>
    </TTGlyph>
    <TTGlyph name="N" xMin="13" yMin="141" xMax="527" yMax="475">
      <contour>
        <pt x="270" y="194" on="1"/>
        <pt x="252" y="168" on="0"/>
        <pt x="204" y="141" on="0"/>
        <pt x="164" y="141" on="1"/>
        <pt x="154" y="141" on="1"/>
        <pt x="113" y="141" on="0"/>
        <pt x="58" y="162" on="0"/>
        <pt x="26" y="202" on="0"/>
        <pt x="13" y="261" on="0"/>
        <pt x="13" y="298" on="1"/>
        <pt x="13" y="318" on="1"/>
        <pt x="13" y="356" on="0"/>
        <pt x="26" y="414" on="0"/>
        <pt x="58" y="454" on="0"/>
        <pt x="113" y="475" on="0"/>
        <pt x="154" y="475" on="1"/>
        <pt x="164" y="475" on="1"/>
        <pt x="204" y="475" on="0"/>
        <pt x="254" y="448" on="0"/>
        <pt x="272" y="422" on="1"/>
        <pt x="290" y="448" on="0"/>
        <pt x="336" y="475" on="0"/>
        <pt x="376" y="475" on="1"/>
        <pt x="386" y="475" on="1"/>
        <pt x="427" y="475" on="0"/>
        <pt x="482" y="454" on="0"/>
        <pt x="514" y="414" on="0"/>
        <pt x="527" y="356" on="0"/>
        <pt x="527" y="318" on="1"/>
        <pt x="527" y="303" on="1"/>
        <pt x="527" y="266" on="0"/>
        <pt x="514" y="206" on="0"/>
        <pt x="482" y="164" on="0"/>
        <pt x="427" y="141" on="0"/>
        <pt x="386" y="141" on="1"/>
        <pt x="376" y="141" on="1"/>
        <pt x="336" y="141" on="0"/>
        <pt x="288" y="168" on="0"/>
      </contour>
      <contour>
        <pt x="448" y="342" on="1"/>
        <pt x="446" y="376" on="0"/>
        <pt x="417" y="405" on="0"/>
        <pt x="381" y="405" on="1"/>
        <pt x="374" y="405" on="1"/>
        <pt x="342" y="405" on="0"/>
        <pt x="313" y="368" on="0"/>
        <pt x="311" y="340" on="1"/>
        <pt x="311" y="282" on="1"/>
        <pt x="311" y="252" on="0"/>
        <pt x="340" y="211" on="0"/>
        <pt x="374" y="211" on="1"/>
        <pt x="381" y="211" on="1"/>
        <pt x="419" y="211" on="0"/>
        <pt x="448" y="244" on="0"/>
        <pt x="448" y="282" on="1"/>
      </contour>
      <contour>
        <pt x="92" y="274" on="1"/>
        <pt x="94" y="240" on="0"/>
        <pt x="123" y="211" on="0"/>
        <pt x="159" y="211" on="1"/>
        <pt x="166" y="211" on="1"/>
        <pt x="198" y="211" on="0"/>
        <pt x="227" y="248" on="0"/>
        <pt x="229" y="276" on="1"/>
        <pt x="229" y="334" on="1"/>
        <pt x="229" y="364" on="0"/>
        <pt x="200" y="405" on="0"/>
        <pt x="166" y="405" on="1"/>
        <pt x="159" y="405" on="1"/>
        <pt x="121" y="405" on="0"/>
        <pt x="92" y="372" on="0"/>
        <pt x="92" y="334" on="1"/>
      </contour>
    </TTGlyph>
    <TTGlyph name="Ntilde" xMin="220" yMin="260" xMax="320" yMax="360">
      <contour>
        <pt x="220" y="260" on="1"/>
        <pt x="220" y="360" on="1"/>
        <pt x="320" y="360" on="1"/>
        <pt x="320" y="260" on="1"/>
      </contour>
    </TTGlyph>
    <TTGlyph name="O" xMin="57" yMin="128" xMax="482" yMax="620">
      <contour>
        <pt x="226" y="490" on="1"/>
        <pt x="57" y="355" on="1"/>
        <pt x="57" y="457" on="1"/>
        <pt x="269" y="620" on="1"/>
        <pt x="482" y="457" on="1"/>
        <pt x="482" y="355" on="1"/>
        <pt x="312" y="491" on="1"/>
        <pt x="312" y="128" on="1"/>
        <pt x="226" y="128" on="1"/>
      </contour>
    </TTGlyph>
    <TTGlyph name="OE" xMin="220" yMin="260" xMax="320" yMax="360">
      <contour>
        <pt x="220" y="260" on="1"/>
        <pt x="220" y="360" on="1"/>
        <pt x="320" y="360" on="1"/>
        <pt x="320" y="260" on="1"/>
      </contour>
    </TTGlyph>
    <TTGlyph name="Oacute" xMin="220" yMin="260" xMax="320" yMax="360">
      <contour>
        <pt x="220" y="260" on="1"/>
        <pt x="220" y="360" on="1"/>
        <pt x="320" y="360" on="1"/>
        <pt x="320" y="260" on="1"/>
      </contour>
    </TTGlyph>
    <TTGlyph name="Ocircumflex" xMin="220" yMin="260" xMax="320" yMax="360">
      <contour>
        <pt x="220" y="260" on="1"/>
        <pt x="220" y="360" on="1"/>
        <pt x="320" y="360" on="1"/>
        <pt x="320" y="260" on="1"/>
      </contour>
    </TTGlyph>
    <TTGlyph name="Odieresis" xMin="220" yMin="260" xMax="320" yMax="360">
      <contour>
        <pt x="220" y="260" on="1"/>
        <pt x="220" y="360" on="1"/>
        <pt x="320" y="360" on="1"/>
        <pt x="320" y="260" on="1"/>
      </contour>
    </TTGlyph>
    <TTGlyph name="Ograve" xMin="220" yMin="260" xMax="320" yMax="360">
      <contour>
        <pt x="220" y="260" on="1"/>
        <pt x="220" y="360" on="1"/>
        <pt x="320" y="360" on="1"/>
        <pt x="320" y="260" on="1"/>
      </contour>
    </TTGlyph>
    <TTGlyph name="Omega" xMin="220" yMin="260" xMax="320" yMax="360">
      <contour>
        <pt x="220" y="260" on="1"/>
        <pt x="220" y="360" on="1"/>
        <pt x="320" y="360" on="1"/>
        <pt x="320" y="260" on="1"/>
      </contour>
    </TTGlyph>
    <TTGlyph name="Oslash" xMin="220" yMin="260" xMax="320" yMax="360">
      <contour>
        <pt x="220" y="260" on="1"/>
        <pt x="220" y="360" on="1"/>
        <pt x="320" y="360" on="1"/>
        <pt x="320" y="260" on="1"/>
      </contour>
    </TTGlyph>
    <TTGlyph name="Otilde" xMin="220" yMin="260" xMax="320" yMax="360">
      <contour>
        <pt x="220" y="260" on="1"/>
        <pt x="220" y="360" on="1"/>
        <pt x="320" y="360" on="1"/>
        <pt x="320" y="260" on="1"/>
      </contour>
    </TTGlyph>
    <TTGlyph name="P" xMin="24" yMin="157" xMax="516" yMax="582">
      <contour>
        <pt x="383" y="411" on="1"/>
        <pt x="248" y="582" on="1"/>
        <pt x="353" y="582" on="1"/>
        <pt x="516" y="370" on="1"/>
        <pt x="353" y="157" on="1"/>
        <pt x="248" y="157" on="1"/>
        <pt x="384" y="329" on="1"/>
        <pt x="24" y="329" on="1"/>
        <pt x="24" y="411" on="1"/>
      </contour>
    </TTGlyph>
    <TTGlyph name="Q" xMin="63" yMin="162" xMax="476" yMax="575">
      <contour>
        <pt x="161" y="418" on="1"/>
        <pt x="136" y="202" on="1"/>
        <pt x="63" y="275" on="1"/>
        <pt x="98" y="540" on="1"/>
        <pt x="364" y="575" on="1"/>
        <pt x="437" y="502" on="1"/>
        <pt x="220" y="478" on="1"/>
        <pt x="476" y="222" on="1"/>
        <pt x="416" y="162" on="1"/>
      </contour>
    </TTGlyph>
    <TTGlyph name="R" xMin="63" yMin="166" xMax="476" yMax="579">
      <contour>
        <pt x="319" y="481" on="1"/>
        <pt x="103" y="506" on="1"/>
        <pt x="176" y="579" on="1"/>
        <pt x="441" y="544" on="1"/>
        <pt x="476" y="278" on="1"/>
        <pt x="403" y="205" on="1"/>
        <pt x="379" y="422" on="1"/>
        <pt x="123" y="166" on="1"/>
        <pt x="63" y="226" on="1"/>
      </contour>
    </TTGlyph>
    <TTGlyph name="S" xMin="220" yMin="260" xMax="320" yMax="360">
      <contour>
        <pt x="220" y="260" on="1"/>
        <pt x="220" y="360" on="1"/>
        <pt x="320" y="360" on="1"/>
        <pt x="320" y="260" on="1"/>
      </contour>
    </TTGlyph>
    <TTGlyph name="Scaron" xMin="220" yMin="260" xMax="320" yMax="360">
      <contour>
        <pt x="220" y="260" on="1"/>
        <pt x="220" y="360" on="1"/>
        <pt x="320" y="360" on="1"/>
        <pt x="320" y="260" on="1"/>
      </contour>
    </TTGlyph>
    <TTGlyph name="T" xMin="220" yMin="260" xMax="320" yMax="360">
      <contour>
        <pt x="220" y="260" on="1"/>
        <pt x="220" y="360" on="1"/>
        <pt x="320" y="360" on="1"/>
        <pt x="320" y="260" on="1"/>
      </contour>
    </TTGlyph>
    <TTGlyph name="Thorn" xMin="220" yMin="260" xMax="320" yMax="360">
      <contour>
        <pt x="220" y="260" on="1"/>
        <pt x="220" y="360" on="1"/>
        <pt x="320" y="360" on="1"/>
        <pt x="320" y="260" on="1"/>
      </contour>
    </TTGlyph>
    <TTGlyph name="U" xMin="53" yMin="0" xMax="486" yMax="700">
      <contour>
        <pt x="486" y="158" on="1"/>
        <pt x="486" y="72" on="0"/>
        <pt x="406" y="0" on="0"/>
        <pt x="316" y="0" on="1"/>
        <pt x="110" y="0" on="1"/>
        <pt x="110" y="325" on="1"/>
        <pt x="53" y="325" on="1"/>
        <pt x="53" y="400" on="1"/>
        <pt x="110" y="400" on="1"/>
        <pt x="110" y="700" on="1"/>
        <pt x="304" y="700" on="1"/>
        <pt x="390" y="700" on="0"/>
        <pt x="486" y="630" on="0"/>
        <pt x="486" y="544" on="1"/>
        <pt x="486" y="158" on="1"/>
      </contour>
      <contour>
        <pt x="399" y="553" on="1"/>
        <pt x="399" y="586" on="0"/>
        <pt x="358" y="625" on="0"/>
        <pt x="326" y="625" on="1"/>
        <pt x="197" y="625" on="1"/>
        <pt x="197" y="400" on="1"/>
        <pt x="313" y="400" on="1"/>
        <pt x="313" y="325" on="1"/>
        <pt x="197" y="325" on="1"/>
        <pt x="197" y="75" on="1"/>
        <pt x="325" y="75" on="1"/>
        <pt x="363" y="75" on="0"/>
        <pt x="399" y="110" on="0"/>
        <pt x="399" y="148" on="1"/>
      </contour>
    </TTGlyph>
    <TTGlyph name="Uacute" xMin="220" yMin="260" xMax="320" yMax="360">
      <contour>
        <pt x="220" y="260" on="1"/>
        <pt x="220" y="360" on="1"/>
        <pt x="320" y="360" on="1"/>
        <pt x="320" y="260" on="1"/>
      </contour>
    </TTGlyph>
    <TTGlyph name="Ucircumflex" xMin="220" yMin="260" xMax="320" yMax="360">
      <contour>
        <pt x="220" y="260" on="1"/>
        <pt x="220" y="360" on="1"/>
        <pt x="320" y="360" on="1"/>
        <pt x="320" y="260" on="1"/>
      </contour>
    </TTGlyph>
    <TTGlyph name="Udieresis" xMin="220" yMin="260" xMax="320" yMax="360">
      <contour>
        <pt x="220" y="260" on="1"/>
        <pt x="220" y="360" on="1"/>
        <pt x="320" y="360" on="1"/>
        <pt x="320" y="260" on="1"/>
      </contour>
    </TTGlyph>
    <TTGlyph name="Ugrave" xMin="220" yMin="260" xMax="320" yMax="360">
      <contour>
        <pt x="220" y="260" on="1"/>
        <pt x="220" y="360" on="1"/>
        <pt x="320" y="360" on="1"/>
        <pt x="320" y="260" on="1"/>
      </contour>
    </TTGlyph>
    <TTGlyph name="V" xMin="70" yMin="0" xMax="470" yMax="700">
      <contour>
        <pt x="160" y="0" on="1"/>
        <pt x="160" y="343" on="1"/>
        <pt x="70" y="300" on="1"/>
        <pt x="70" y="380" on="1"/>
        <pt x="160" y="423" on="1"/>
        <pt x="160" y="700" on="1"/>
        <pt x="247" y="700" on="1"/>
        <pt x="247" y="465" on="1"/>
        <pt x="360" y="520" on="1"/>
        <pt x="360" y="440" on="1"/>
        <pt x="247" y="385" on="1"/>
        <pt x="247" y="76" on="1"/>
        <pt x="470" y="76" on="1"/>
        <pt x="470" y="0" on="1"/>
      </contour>
    </TTGlyph>
    <TTGlyph name="W" xMin="89" yMin="0" xMax="450" yMax="700">
      <contour>
        <pt x="450" y="300" on="1"/>
        <pt x="450" y="217" on="0"/>
        <pt x="363" y="142" on="0"/>
        <pt x="280" y="142" on="1"/>
        <pt x="176" y="142" on="1"/>
        <pt x="176" y="0" on="1"/>
        <pt x="89" y="0" on="1"/>
        <pt x="89" y="700" on="1"/>
        <pt x="176" y="700" on="1"/>
        <pt x="176" y="570" on="1"/>
        <pt x="278" y="570" on="1"/>
        <pt x="361" y="570" on="0"/>
        <pt x="450" y="497" on="0"/>
        <pt x="450" y="414" on="1"/>
        <pt x="450" y="300" on="1"/>
      </contour>
      <contour>
        <pt x="363" y="423" on="1"/>
        <pt x="363" y="461" on="0"/>
        <pt x="328" y="495" on="0"/>
        <pt x="290" y="495" on="1"/>
        <pt x="176" y="495" on="1"/>
        <pt x="176" y="217" on="1"/>
        <pt x="290" y="217" on="1"/>
        <pt x="328" y="217" on="0"/>
        <pt x="363" y="252" on="0"/>
        <pt x="363" y="290" on="1"/>
      </contour>
    </TTGlyph>
    <TTGlyph name="X" xMin="100" yMin="0" xMax="439" yMax="845">
      <contour>
        <pt x="223" y="845" on="1"/>
        <pt x="283" y="778" on="1"/>
        <pt x="343" y="845" on="1"/>
        <pt x="439" y="845" on="1"/>
        <pt x="327" y="730" on="1"/>
        <pt x="239" y="730" on="1"/>
        <pt x="126" y="845" on="1"/>
      </contour>
      <contour>
        <pt x="439" y="170" on="1"/>
        <pt x="439" y="84" on="0"/>
        <pt x="346" y="0" on="0"/>
        <pt x="259" y="0" on="1"/>
        <pt x="117" y="0" on="1"/>
        <pt x="117" y="76" on="1"/>
        <pt x="269" y="76" on="1"/>
        <pt x="307" y="76" on="0"/>
        <pt x="352" y="121" on="0"/>
        <pt x="352" y="151" on="1"/>
        <pt x="352" y="255" on="1"/>
        <pt x="352" y="284" on="0"/>
        <pt x="322" y="322" on="0"/>
        <pt x="290" y="322" on="1"/>
        <pt x="260" y="322" on="1"/>
        <pt x="188" y="322" on="0"/>
        <pt x="100" y="406" on="0"/>
        <pt x="100" y="492" on="1"/>
        <pt x="100" y="530" on="1"/>
        <pt x="100" y="616" on="0"/>
        <pt x="193" y="700" on="0"/>
        <pt x="280" y="700" on="1"/>
        <pt x="423" y="700" on="1"/>
        <pt x="423" y="624" on="1"/>
        <pt x="270" y="624" on="1"/>
        <pt x="232" y="624" on="0"/>
        <pt x="187" y="579" on="0"/>
        <pt x="187" y="549" on="1"/>
        <pt x="187" y="473" on="1"/>
        <pt x="187" y="443" on="0"/>
        <pt x="226" y="401" on="0"/>
        <pt x="259" y="401" on="1"/>
        <pt x="289" y="401" on="1"/>
        <pt x="358" y="401" on="0"/>
        <pt x="439" y="322" on="0"/>
        <pt x="439" y="236" on="1"/>
        <pt x="439" y="170" on="1"/>
      </contour>
    </TTGlyph>
    <TTGlyph name="Y" xMin="41" yMin="0" xMax="498" yMax="841">
      <contour>
        <pt x="186" y="726" on="1"/>
        <pt x="290" y="841" on="1"/>
        <pt x="401" y="841" on="1"/>
        <pt x="269" y="726" on="1"/>
      </contour>
      <contour>
        <pt x="313" y="325" on="1"/>
        <pt x="313" y="0" on="1"/>
        <pt x="223" y="0" on="1"/>
        <pt x="223" y="325" on="1"/>
        <pt x="41" y="700" on="1"/>
        <pt x="137" y="700" on="1"/>
        <pt x="272" y="417" on="1"/>
        <pt x="407" y="700" on="1"/>
        <pt x="498" y="700" on="1"/>
      </contour>
    </TTGlyph>
    <TTGlyph name="Yacute" xMin="220" yMin="260" xMax="320" yMax="360">
      <contour>
        <pt x="220" y="260" on="1"/>
        <pt x="220" y="360" on="1"/>
        <pt x="320" y="360" on="1"/>
        <pt x="320" y="260" on="1"/>
      </contour>
    </TTGlyph>
    <TTGlyph name="Ydieresis" xMin="220" yMin="260" xMax="320" yMax="360">
      <contour>
        <pt x="220" y="260" on="1"/>
        <pt x="220" y="360" on="1"/>
        <pt x="320" y="360" on="1"/>
        <pt x="320" y="260" on="1"/>
      </contour>
    </TTGlyph>
    <TTGlyph name="Z" xMin="88" yMin="0" xMax="452" yMax="845">
      <contour>
        <pt x="227" y="845" on="1"/>
        <pt x="287" y="778" on="1"/>
        <pt x="347" y="845" on="1"/>
        <pt x="443" y="845" on="1"/>
        <pt x="331" y="730" on="1"/>
        <pt x="243" y="730" on="1"/>
        <pt x="130" y="845" on="1"/>
      </contour>
      <contour>
        <pt x="179" y="74" on="1"/>
        <pt x="442" y="74" on="1"/>
        <pt x="442" y="0" on="1"/>
        <pt x="88" y="0" on="1"/>
        <pt x="88" y="88" on="1"/>
        <pt x="362" y="626" on="1"/>
        <pt x="111" y="626" on="1"/>
        <pt x="111" y="700" on="1"/>
        <pt x="452" y="700" on="1"/>
        <pt x="452" y="612" on="1"/>
      </contour>
    </TTGlyph>
    <TTGlyph name="Zcaron" xMin="220" yMin="260" xMax="320" yMax="360">
      <contour>
        <pt x="220" y="260" on="1"/>
        <pt x="220" y="360" on="1"/>
        <pt x="320" y="360" on="1"/>
        <pt x="320" y="260" on="1"/>
      </contour>
    </TTGlyph>
    <TTGlyph name="a" xMin="135" yMin="-6" xMax="405" yMax="500">
      <contour>
        <pt x="405" y="122" on="1"/>
        <pt x="405" y="57" on="0"/>
        <pt x="336" y="-6" on="0"/>
        <pt x="279" y="-6" on="1"/>
        <pt x="261" y="-6" on="1"/>
        <pt x="204" y="-6" on="0"/>
        <pt x="135" y="57" on="0"/>
        <pt x="135" y="122" on="1"/>
        <pt x="135" y="372" on="1"/>
        <pt x="135" y="437" on="0"/>
        <pt x="204" y="500" on="0"/>
        <pt x="261" y="500" on="1"/>
        <pt x="279" y="500" on="1"/>
        <pt x="336" y="500" on="0"/>
        <pt x="405" y="437" on="0"/>
        <pt x="405" y="372" on="1"/>
        <pt x="405" y="122" on="1"/>
      </contour>
      <contour>
        <pt x="331" y="379" on="1"/>
        <pt x="331" y="402" on="0"/>
        <pt x="307" y="436" on="0"/>
        <pt x="279" y="436" on="1"/>
        <pt x="261" y="436" on="1"/>
        <pt x="233" y="436" on="0"/>
        <pt x="209" y="402" on="0"/>
        <pt x="209" y="379" on="1"/>
        <pt x="209" y="115" on="1"/>
        <pt x="209" y="92" on="0"/>
        <pt x="233" y="58" on="0"/>
        <pt x="261" y="58" on="1"/>
        <pt x="279" y="58" on="1"/>
        <pt x="307" y="58" on="0"/>
        <pt x="331" y="92" on="0"/>
        <pt x="331" y="115" on="1"/>
      </contour>
    </TTGlyph>
    <TTGlyph name="aacute" xMin="220" yMin="260" xMax="320" yMax="360">
      <contour>
        <pt x="220" y="260" on="1"/>
        <pt x="220" y="360" on="1"/>
        <pt x="320" y="360" on="1"/>
        <pt x="320" y="260" on="1"/>
      </contour>
    </TTGlyph>
    <TTGlyph name="acircumflex" xMin="220" yMin="260" xMax="320" yMax="360">
      <contour>
        <pt x="220" y="260" on="1"/>
        <pt x="220" y="360" on="1"/>
        <pt x="320" y="360" on="1"/>
        <pt x="320" y="260" on="1"/>
      </contour>
    </TTGlyph>
    <TTGlyph name="acute" xMin="220" yMin="260" xMax="320" yMax="360">
      <contour>
        <pt x="220" y="260" on="1"/>
        <pt x="220" y="360" on="1"/>
        <pt x="320" y="360" on="1"/>
        <pt x="320" y="260" on="1"/>
      </contour>
    </TTGlyph>
    <TTGlyph name="adieresis" xMin="220" yMin="260" xMax="320" yMax="360">
      <contour>
        <pt x="220" y="260" on="1"/>
        <pt x="220" y="360" on="1"/>
        <pt x="320" y="360" on="1"/>
        <pt x="320" y="260" on="1"/>
      </contour>
    </TTGlyph>
    <TTGlyph name="ae" xMin="220" yMin="260" xMax="320" yMax="360">
      <contour>
        <pt x="220" y="260" on="1"/>
        <pt x="220" y="360" on="1"/>
        <pt x="320" y="360" on="1"/>
        <pt x="320" y="260" on="1"/>
      </contour>
    </TTGlyph>
    <TTGlyph name="agrave" xMin="220" yMin="260" xMax="320" yMax="360">
      <contour>
        <pt x="220" y="260" on="1"/>
        <pt x="220" y="360" on="1"/>
        <pt x="320" y="360" on="1"/>
        <pt x="320" y="260" on="1"/>
      </contour>
    </TTGlyph>
    <TTGlyph name="ampersand" xMin="222" yMin="-200" xMax="317" yMax="-110">
      <contour>
        <pt x="317" y="-110" on="1"/>
        <pt x="317" y="-200" on="1"/>
        <pt x="222" y="-200" on="1"/>
        <pt x="222" y="-110" on="1"/>
      </contour>
    </TTGlyph>
    <TTGlyph name="approxequal" xMin="220" yMin="260" xMax="320" yMax="360">
      <contour>
        <pt x="220" y="260" on="1"/>
        <pt x="220" y="360" on="1"/>
        <pt x="320" y="360" on="1"/>
        <pt x="320" y="260" on="1"/>
      </contour>
    </TTGlyph>
    <TTGlyph name="aring" xMin="220" yMin="260" xMax="320" yMax="360">
      <contour>
        <pt x="220" y="260" on="1"/>
        <pt x="220" y="360" on="1"/>
        <pt x="320" y="360" on="1"/>
        <pt x="320" y="260" on="1"/>
      </contour>
    </TTGlyph>
    <TTGlyph name="asciicircum" xMin="220" yMin="260" xMax="320" yMax="360">
      <contour>
        <pt x="220" y="260" on="1"/>
        <pt x="220" y="360" on="1"/>
        <pt x="320" y="360" on="1"/>
        <pt x="320" y="260" on="1"/>
      </contour>
    </TTGlyph>
    <TTGlyph name="asciitilde" xMin="26" yMin="201" xMax="513" yMax="464">
      <contour>
        <pt x="265" y="201" on="1"/>
        <pt x="265" y="295" on="1"/>
        <pt x="26" y="295" on="1"/>
        <pt x="26" y="370" on="1"/>
        <pt x="265" y="370" on="1"/>
        <pt x="265" y="464" on="1"/>
        <pt x="513" y="333" on="1"/>
      </contour>
    </TTGlyph>
    <TTGlyph name="asterisk" xMin="76" yMin="598" xMax="464" yMax="745">
      <contour>
        <pt x="167" y="598" on="1"/>
        <pt x="76" y="598" on="1"/>
        <pt x="179" y="745" on="1"/>
        <pt x="294" y="745" on="1"/>
      </contour>
      <contour>
        <pt x="337" y="598" on="1"/>
        <pt x="246" y="598" on="1"/>
        <pt x="349" y="745" on="1"/>
        <pt x="464" y="745" on="1"/>
      </contour>
    </TTGlyph>
    <TTGlyph name="at" xMin="25" yMin="0" xMax="515" yMax="700">
      <contour>
        <pt x="515" y="170" on="1"/>
        <pt x="515" y="84" on="0"/>
        <pt x="427" y="0" on="0"/>
        <pt x="352" y="0" on="1"/>
        <pt x="188" y="0" on="1"/>
        <pt x="113" y="0" on="0"/>
        <pt x="25" y="84" on="0"/>
        <pt x="25" y="170" on="1"/>
        <pt x="25" y="530" on="1"/>
        <pt x="25" y="617" on="0"/>
        <pt x="113" y="700" on="0"/>
        <pt x="188" y="700" on="1"/>
        <pt x="352" y="700" on="1"/>
        <pt x="427" y="700" on="0"/>
        <pt x="515" y="617" on="0"/>
        <pt x="515" y="530" on="1"/>
        <pt x="515" y="170" on="1"/>
      </contour>
      <contour>
        <pt x="443" y="552" on="1"/>
        <pt x="443" y="567" on="0"/>
        <pt x="431" y="597" on="0"/>
        <pt x="409" y="621" on="0"/>
        <pt x="375" y="636" on="0"/>
        <pt x="352" y="636" on="1"/>
        <pt x="188" y="636" on="1"/>
        <pt x="165" y="636" on="0"/>
        <pt x="131" y="621" on="0"/>
        <pt x="108" y="597" on="0"/>
        <pt x="97" y="567" on="0"/>
        <pt x="97" y="552" on="1"/>
        <pt x="97" y="147" on="1"/>
        <pt x="97" y="132" on="0"/>
        <pt x="108" y="102" on="0"/>
        <pt x="131" y="78" on="0"/>
        <pt x="165" y="63" on="0"/>
        <pt x="188" y="63" on="1"/>
        <pt x="352" y="63" on="1"/>
        <pt x="375" y="63" on="0"/>
        <pt x="410" y="78" on="0"/>
        <pt x="432" y="102" on="0"/>
        <pt x="443" y="132" on="0"/>
        <pt x="443" y="147" on="1"/>
      </contour>
      <contour>
        <pt x="387" y="395" on="1"/>
        <pt x="387" y="350" on="0"/>
        <pt x="338" y="304" on="0"/>
        <pt x="293" y="304" on="1"/>
        <pt x="234" y="304" on="1"/>
        <pt x="234" y="159" on="1"/>
        <pt x="178" y="159" on="1"/>
        <pt x="178" y="543" on="1"/>
        <pt x="285" y="543" on="1"/>
        <pt x="335" y="543" on="0"/>
        <pt x="387" y="502" on="0"/>
        <pt x="387" y="457" on="1"/>
        <pt x="387" y="395" on="1"/>
      </contour>
      <contour>
        <pt x="328" y="457" on="1"/>
        <pt x="328" y="478" on="0"/>
        <pt x="308" y="494" on="0"/>
        <pt x="285" y="494" on="1"/>
        <pt x="234" y="494" on="1"/>
        <pt x="234" y="354" on="1"/>
        <pt x="285" y="354" on="1"/>
        <pt x="328" y="354" on="0"/>
        <pt x="328" y="394" on="1"/>
      </contour>
    </TTGlyph>
    <TTGlyph name="atilde" xMin="220" yMin="260" xMax="320" yMax="360">
      <contour>
        <pt x="220" y="260" on="1"/>
        <pt x="220" y="360" on="1"/>
        <pt x="320" y="360" on="1"/>
        <pt x="320" y="260" on="1"/>
      </contour>
    </TTGlyph>
    <TTGlyph name="b" xMin="146" yMin="0" xMax="393" yMax="495">
      <contour>
        <pt x="154" y="0" on="1"/>
        <pt x="154" y="64" on="1"/>
        <pt x="245" y="64" on="1"/>
        <pt x="245" y="428" on="1"/>
        <pt x="146" y="389" on="1"/>
        <pt x="146" y="457" on="1"/>
        <pt x="237" y="495" on="1"/>
        <pt x="319" y="495" on="1"/>
        <pt x="319" y="64" on="1"/>
        <pt x="393" y="64" on="1"/>
        <pt x="393" y="0" on="1"/>
      </contour>
    </TTGlyph>
    <TTGlyph name="backslash" xMin="220" yMin="260" xMax="320" yMax="360">
      <contour>
        <pt x="220" y="260" on="1"/>
        <pt x="220" y="360" on="1"/>
        <pt x="320" y="360" on="1"/>
        <pt x="320" y="260" on="1"/>
      </contour>
    </TTGlyph>
    <TTGlyph name="bar" xMin="102" yMin="158" xMax="437" yMax="508">
      <contour>
        <pt x="437" y="333" on="1"/>
        <pt x="102" y="158" on="1"/>
        <pt x="102" y="508" on="1"/>
      </contour>
    </TTGlyph>
    <TTGlyph name="braceleft" xMin="102" yMin="158" xMax="437" yMax="508">
      <contour>
        <pt x="102" y="333" on="1"/>
        <pt x="437" y="508" on="1"/>
        <pt x="437" y="158" on="1"/>
      </contour>
    </TTGlyph>
    <TTGlyph name="braceright" xMin="26" yMin="202" xMax="513" yMax="465">
      <contour>
        <pt x="274" y="465" on="1"/>
        <pt x="274" y="371" on="1"/>
        <pt x="513" y="371" on="1"/>
        <pt x="513" y="296" on="1"/>
        <pt x="274" y="296" on="1"/>
        <pt x="274" y="202" on="1"/>
        <pt x="26" y="333" on="1"/>
      </contour>
    </TTGlyph>
    <TTGlyph name="bracketleft" xMin="220" yMin="260" xMax="320" yMax="360">
      <contour>
        <pt x="220" y="260" on="1"/>
        <pt x="220" y="360" on="1"/>
        <pt x="320" y="360" on="1"/>
        <pt x="320" y="260" on="1"/>
      </contour>
    </TTGlyph>
    <TTGlyph name="bracketright" xMin="220" yMin="260" xMax="320" yMax="360">
      <contour>
        <pt x="220" y="260" on="1"/>
        <pt x="220" y="360" on="1"/>
        <pt x="320" y="360" on="1"/>
        <pt x="320" y="260" on="1"/>
      </contour>
    </TTGlyph>
    <TTGlyph name="breve" xMin="220" yMin="260" xMax="320" yMax="360">
      <contour>
        <pt x="220" y="260" on="1"/>
        <pt x="220" y="360" on="1"/>
        <pt x="320" y="360" on="1"/>
        <pt x="320" y="260" on="1"/>
      </contour>
    </TTGlyph>
    <TTGlyph name="brokenbar" xMin="220" yMin="260" xMax="320" yMax="360">
      <contour>
        <pt x="220" y="260" on="1"/>
        <pt x="220" y="360" on="1"/>
        <pt x="320" y="360" on="1"/>
        <pt x="320" y="260" on="1"/>
      </contour>
    </TTGlyph>
    <TTGlyph name="bullet" xMin="220" yMin="260" xMax="320" yMax="360">
      <contour>
        <pt x="220" y="260" on="1"/>
        <pt x="220" y="360" on="1"/>
        <pt x="320" y="360" on="1"/>
        <pt x="320" y="260" on="1"/>
      </contour>
    </TTGlyph>
    <TTGlyph name="c" xMin="150" yMin="0" xMax="390" yMax="495">
      <contour>
        <pt x="150" y="0" on="1"/>
        <pt x="150" y="73" on="1"/>
        <pt x="262" y="226" on="1"/>
        <pt x="278" y="247" on="0"/>
        <pt x="297" y="276" on="0"/>
        <pt x="308" y="300" on="0"/>
        <pt x="312" y="327" on="0"/>
        <pt x="312" y="346" on="1"/>
        <pt x="312" y="382" on="1"/>
        <pt x="312" y="405" on="0"/>
        <pt x="284" y="431" on="0"/>
        <pt x="251" y="431" on="1"/>
        <pt x="165" y="431" on="1"/>
        <pt x="165" y="495" on="1"/>
        <pt x="244" y="495" on="1"/>
        <pt x="319" y="495" on="0"/>
        <pt x="385" y="438" on="0"/>
        <pt x="385" y="376" on="1"/>
        <pt x="385" y="353" on="1"/>
        <pt x="385" y="322" on="0"/>
        <pt x="379" y="282" on="0"/>
        <pt x="367" y="252" on="0"/>
        <pt x="346" y="223" on="0"/>
        <pt x="331" y="203" on="1"/>
        <pt x="228" y="64" on="1"/>
        <pt x="390" y="64" on="1"/>
        <pt x="390" y="0" on="1"/>
      </contour>
    </TTGlyph>
    <TTGlyph name="caron" xMin="220" yMin="260" xMax="320" yMax="360">
      <contour>
        <pt x="220" y="260" on="1"/>
        <pt x="220" y="360" on="1"/>
        <pt x="320" y="360" on="1"/>
        <pt x="320" y="260" on="1"/>
      </contour>
    </TTGlyph>
    <TTGlyph name="ccedilla" xMin="220" yMin="260" xMax="320" yMax="360">
      <contour>
        <pt x="220" y="260" on="1"/>
        <pt x="220" y="360" on="1"/>
        <pt x="320" y="360" on="1"/>
        <pt x="320" y="260" on="1"/>
      </contour>
    </TTGlyph>
    <TTGlyph name="cedilla" xMin="220" yMin="260" xMax="320" yMax="360">
      <contour>
        <pt x="220" y="260" on="1"/>
        <pt x="220" y="360" on="1"/>
        <pt x="320" y="360" on="1"/>
        <pt x="320" y="260" on="1"/>
      </contour>
    </TTGlyph>
    <TTGlyph name="cent" xMin="220" yMin="260" xMax="320" yMax="360">
      <contour>
        <pt x="220" y="260" on="1"/>
        <pt x="220" y="360" on="1"/>
        <pt x="320" y="360" on="1"/>
        <pt x="320" y="260" on="1"/>
      </contour>
    </TTGlyph>
    <TTGlyph name="circumflex" xMin="220" yMin="260" xMax="320" yMax="360">
      <contour>
        <pt x="220" y="260" on="1"/>
        <pt x="220" y="360" on="1"/>
        <pt x="320" y="360" on="1"/>
        <pt x="320" y="260" on="1"/>
      </contour>
    </TTGlyph>
    <TTGlyph name="colon" xMin="220" yMin="260" xMax="320" yMax="360">
      <contour>
        <pt x="220" y="260" on="1"/>
        <pt x="220" y="360" on="1"/>
        <pt x="320" y="360" on="1"/>
        <pt x="320" y="260" on="1"/>
      </contour>
    </TTGlyph>
    <TTGlyph name="comma" xMin="113" yMin="579" xMax="426" yMax="714">
      <contour>
        <pt x="210" y="714" on="1"/>
        <pt x="270" y="639" on="1"/>
        <pt x="330" y="714" on="1"/>
        <pt x="426" y="714" on="1"/>
        <pt x="314" y="579" on="1"/>
        <pt x="226" y="579" on="1"/>
        <pt x="113" y="714" on="1"/>
      </contour>
    </TTGlyph>
    <TTGlyph name="copyright" xMin="220" yMin="260" xMax="320" yMax="360">
      <contour>
        <pt x="220" y="260" on="1"/>
        <pt x="220" y="360" on="1"/>
        <pt x="320" y="360" on="1"/>
        <pt x="320" y="260" on="1"/>
      </contour>
    </TTGlyph>
    <TTGlyph name="currency" xMin="14" yMin="46" xMax="526" yMax="558">
      <contour>
        <pt x="85" y="174" on="1"/>
        <pt x="73" y="206" on="0"/>
        <pt x="73" y="252" on="1"/>
        <pt x="73" y="350" on="1"/>
        <pt x="73" y="398" on="0"/>
        <pt x="85" y="429" on="1"/>
        <pt x="14" y="501" on="1"/>
        <pt x="71" y="558" on="1"/>
        <pt x="139" y="490" on="1"/>
        <pt x="176" y="510" on="0"/>
        <pt x="243" y="510" on="1"/>
        <pt x="296" y="510" on="1"/>
        <pt x="361" y="510" on="0"/>
        <pt x="400" y="489" on="1"/>
        <pt x="469" y="558" on="1"/>
        <pt x="526" y="501" on="1"/>
        <pt x="453" y="428" on="1"/>
        <pt x="466" y="398" on="0"/>
        <pt x="466" y="350" on="1"/>
        <pt x="466" y="252" on="1"/>
        <pt x="466" y="207" on="0"/>
        <pt x="454" y="175" on="1"/>
        <pt x="526" y="103" on="1"/>
        <pt x="469" y="46" on="1"/>
        <pt x="402" y="113" on="1"/>
        <pt x="362" y="92" on="0"/>
        <pt x="296" y="92" on="1"/>
        <pt x="243" y="92" on="1"/>
        <pt x="210" y="92" on="0"/>
        <pt x="158" y="102" on="0"/>
        <pt x="138" y="113" on="1"/>
        <pt x="71" y="46" on="1"/>
        <pt x="14" y="103" on="1"/>
      </contour>
      <contour>
        <pt x="381" y="370" on="1"/>
        <pt x="381" y="400" on="0"/>
        <pt x="344" y="435" on="0"/>
        <pt x="306" y="435" on="1"/>
        <pt x="233" y="435" on="1"/>
        <pt x="195" y="435" on="0"/>
        <pt x="158" y="400" on="0"/>
        <pt x="158" y="370" on="1"/>
        <pt x="158" y="232" on="1"/>
        <pt x="158" y="202" on="0"/>
        <pt x="195" y="167" on="0"/>
        <pt x="233" y="167" on="1"/>
        <pt x="306" y="167" on="1"/>
        <pt x="344" y="167" on="0"/>
        <pt x="381" y="202" on="0"/>
        <pt x="381" y="232" on="1"/>
      </contour>
    </TTGlyph>
    <TTGlyph name="d" xMin="158" yMin="0" xMax="381" yMax="495">
      <contour>
        <pt x="381" y="119" on="1"/>
        <pt x="381" y="56" on="0"/>
        <pt x="323" y="0" on="0"/>
        <pt x="254" y="0" on="1"/>
        <pt x="158" y="0" on="1"/>
        <pt x="158" y="64" on="1"/>
        <pt x="251" y="64" on="1"/>
        <pt x="277" y="64" on="0"/>
        <pt x="307" y="85" on="0"/>
        <pt x="307" y="114" on="1"/>
        <pt x="307" y="169" on="1"/>
        <pt x="307" y="194" on="0"/>
        <pt x="276" y="221" on="0"/>
        <pt x="252" y="221" on="1"/>
        <pt x="181" y="221" on="1"/>
        <pt x="181" y="285" on="1"/>
        <pt x="244" y="285" on="1"/>
        <pt x="267" y="285" on="0"/>
        <pt x="299" y="311" on="0"/>
        <pt x="299" y="337" on="1"/>
        <pt x="299" y="379" on="1"/>
        <pt x="299" y="408" on="0"/>
        <pt x="273" y="431" on="0"/>
        <pt x="244" y="431" on="1"/>
        <pt x="158" y="431" on="1"/>
        <pt x="158" y="495" on="1"/>
        <pt x="245" y="495" on="1"/>
        <pt x="308" y="495" on="0"/>
        <pt x="374" y="440" on="0"/>
        <pt x="374" y="378" on="1"/>
        <pt x="374" y="343" on="1"/>
        <pt x="374" y="314" on="0"/>
        <pt x="350" y="270" on="0"/>
        <pt x="330" y="256" on="1"/>
        <pt x="354" y="243" on="0"/>
        <pt x="381" y="198" on="0"/>
        <pt x="381" y="164" on="1"/>
        <pt x="381" y="119" on="1"/>
      </contour>
    </TTGlyph>
    <TTGlyph name="dagger" xMin="220" yMin="260" xMax="320" yMax="360">
      <contour>
        <pt x="220" y="260" on="1"/>
        <pt x="220" y="360" on="1"/>
        <pt x="320" y="360" on="1"/>
        <pt x="320" y="260" on="1"/>
      </contour>
    </TTGlyph>
    <TTGlyph name="daggerdbl" xMin="220" yMin="260" xMax="320" yMax="360">
      <contour>
        <pt x="220" y="260" on="1"/>
        <pt x="220" y="360" on="1"/>
        <pt x="320" y="360" on="1"/>
        <pt x="320" y="260" on="1"/>
      </contour>
    </TTGlyph>
    <TTGlyph name="degree" xMin="220" yMin="260" xMax="320" yMax="360">
      <contour>
        <pt x="220" y="260" on="1"/>
        <pt x="220" y="360" on="1"/>
        <pt x="320" y="360" on="1"/>
        <pt x="320" y="260" on="1"/>
      </contour>
    </TTGlyph>
    <TTGlyph name="dieresis" xMin="220" yMin="260" xMax="320" yMax="360">
      <contour>
        <pt x="220" y="260" on="1"/>
        <pt x="220" y="360" on="1"/>
        <pt x="320" y="360" on="1"/>
        <pt x="320" y="260" on="1"/>
      </contour>
    </TTGlyph>
    <TTGlyph name="divide" xMin="220" yMin="260" xMax="320" yMax="360">
      <contour>
        <pt x="220" y="260" on="1"/>
        <pt x="220" y="360" on="1"/>
        <pt x="320" y="360" on="1"/>
        <pt x="320" y="260" on="1"/>
      </contour>
    </TTGlyph>
    <TTGlyph name="dollar" xMin="230" yMin="-110" xMax="310" yMax="810">
      <contour>
        <pt x="230" y="-110" on="1"/>
        <pt x="230" y="250" on="1"/>
        <pt x="310" y="250" on="1"/>
        <pt x="310" y="-110" on="1"/>
      </contour>
      <contour>
        <pt x="230" y="450" on="1"/>
        <pt x="230" y="810" on="1"/>
        <pt x="310" y="810" on="1"/>
        <pt x="310" y="450" on="1"/>
      </contour>
    </TTGlyph>
    <TTGlyph name="dotaccent" xMin="220" yMin="260" xMax="320" yMax="360">
      <contour>
        <pt x="220" y="260" on="1"/>
        <pt x="220" y="360" on="1"/>
        <pt x="320" y="360" on="1"/>
        <pt x="320" y="260" on="1"/>
      </contour>
    </TTGlyph>
    <TTGlyph name="dotlessi" xMin="220" yMin="260" xMax="320" yMax="360">
      <contour>
        <pt x="220" y="260" on="1"/>
        <pt x="220" y="360" on="1"/>
        <pt x="320" y="360" on="1"/>
        <pt x="320" y="260" on="1"/>
      </contour>
    </TTGlyph>
    <TTGlyph name="dotmath" xMin="220" yMin="260" xMax="320" yMax="360">
      <contour>
        <pt x="220" y="260" on="1"/>
        <pt x="220" y="360" on="1"/>
        <pt x="320" y="360" on="1"/>
        <pt x="320" y="260" on="1"/>
      </contour>
    </TTGlyph>
    <TTGlyph name="e" xMin="134" yMin="0" xMax="405" yMax="495">
      <contour>
        <pt x="355" y="117" on="1"/>
        <pt x="355" y="0" on="1"/>
        <pt x="281" y="0" on="1"/>
        <pt x="281" y="117" on="1"/>
        <pt x="134" y="117" on="1"/>
        <pt x="134" y="191" on="1"/>
        <pt x="208" y="495" on="1"/>
        <pt x="277" y="495" on="1"/>
        <pt x="204" y="181" on="1"/>
        <pt x="281" y="181" on="1"/>
        <pt x="288" y="324" on="1"/>
        <pt x="355" y="324" on="1"/>
        <pt x="355" y="181" on="1"/>
        <pt x="405" y="181" on="1"/>
        <pt x="405" y="117" on="1"/>
      </contour>
    </TTGlyph>
    <TTGlyph name="eacute" xMin="220" yMin="260" xMax="320" yMax="360">
      <contour>
        <pt x="220" y="260" on="1"/>
        <pt x="220" y="360" on="1"/>
        <pt x="320" y="360" on="1"/>
        <pt x="320" y="260" on="1"/>
      </contour>
    </TTGlyph>
    <TTGlyph name="ecircumflex" xMin="220" yMin="260" xMax="320" yMax="360">
      <contour>
        <pt x="220" y="260" on="1"/>
        <pt x="220" y="360" on="1"/>
        <pt x="320" y="360" on="1"/>
        <pt x="320" y="260" on="1"/>
      </contour>
    </TTGlyph>
    <TTGlyph name="edieresis" xMin="220" yMin="260" xMax="320" yMax="360">
      <contour>
        <pt x="220" y="260" on="1"/>
        <pt x="220" y="360" on="1"/>
        <pt x="320" y="360" on="1"/>
        <pt x="320" y="260" on="1"/>
      </contour>
    </TTGlyph>
    <TTGlyph name="egrave" xMin="220" yMin="260" xMax="320" yMax="360">
      <contour>
        <pt x="220" y="260" on="1"/>
        <pt x="220" y="360" on="1"/>
        <pt x="320" y="360" on="1"/>
        <pt x="320" y="260" on="1"/>
      </contour>
    </TTGlyph>
    <TTGlyph name="eight" xMin="220" yMin="260" xMax="320" yMax="360">
      <contour>
        <pt x="220" y="260" on="1"/>
        <pt x="220" y="360" on="1"/>
        <pt x="320" y="360" on="1"/>
        <pt x="320" y="260" on="1"/>
      </contour>
    </TTGlyph>
    <TTGlyph name="ellipsis" xMin="220" yMin="260" xMax="320" yMax="360">
      <contour>
        <pt x="220" y="260" on="1"/>
        <pt x="220" y="360" on="1"/>
        <pt x="320" y="360" on="1"/>
        <pt x="320" y="260" on="1"/>
      </contour>
    </TTGlyph>
    <TTGlyph name="emdash" xMin="220" yMin="260" xMax="320" yMax="360">
      <contour>
        <pt x="220" y="260" on="1"/>
        <pt x="220" y="360" on="1"/>
        <pt x="320" y="360" on="1"/>
        <pt x="320" y="260" on="1"/>
      </contour>
    </TTGlyph>
    <TTGlyph name="endash" xMin="220" yMin="260" xMax="320" yMax="360">
      <contour>
        <pt x="220" y="260" on="1"/>
        <pt x="220" y="360" on="1"/>
        <pt x="320" y="360" on="1"/>
        <pt x="320" y="260" on="1"/>
      </contour>
    </TTGlyph>
    <TTGlyph name="equal" xMin="80" yMin="70" xMax="460" yMax="555">
      <contour>
        <pt x="349" y="375" on="1"/>
        <pt x="271" y="250" on="1"/>
        <pt x="460" y="250" on="1"/>
        <pt x="460" y="175" on="1"/>
        <pt x="225" y="175" on="1"/>
        <pt x="160" y="70" on="1"/>
        <pt x="80" y="70" on="1"/>
        <pt x="145" y="175" on="1"/>
        <pt x="80" y="175" on="1"/>
        <pt x="80" y="250" on="1"/>
        <pt x="191" y="250" on="1"/>
        <pt x="269" y="375" on="1"/>
        <pt x="80" y="375" on="1"/>
        <pt x="80" y="450" on="1"/>
        <pt x="315" y="450" on="1"/>
        <pt x="380" y="555" on="1"/>
        <pt x="460" y="555" on="1"/>
        <pt x="395" y="450" on="1"/>
        <pt x="460" y="450" on="1"/>
        <pt x="460" y="375" on="1"/>
      </contour>
    </TTGlyph>
    <TTGlyph name="eth" xMin="220" yMin="260" xMax="320" yMax="360">
      <contour>
        <pt x="220" y="260" on="1"/>
        <pt x="220" y="360" on="1"/>
        <pt x="320" y="360" on="1"/>
        <pt x="320" y="260" on="1"/>
      </contour>
    </TTGlyph>
    <TTGlyph name="exclam" xMin="80" yMin="155" xMax="460" yMax="629">
      <contour>
        <pt x="80" y="155" on="1"/>
        <pt x="80" y="230" on="1"/>
        <pt x="460" y="230" on="1"/>
        <pt x="460" y="155" on="1"/>
      </contour>
      <contour>
        <pt x="80" y="355" on="1"/>
        <pt x="80" y="430" on="1"/>
        <pt x="460" y="430" on="1"/>
        <pt x="460" y="355" on="1"/>
      </contour>
      <contour>
        <pt x="80" y="596" on="1"/>
        <pt x="115" y="617" on="0"/>
        <pt x="170" y="629" on="0"/>
        <pt x="192" y="629" on="1"/>
        <pt x="212" y="629" on="0"/>
        <pt x="254" y="617" on="0"/>
        <pt x="296" y="602" on="0"/>
        <pt x="338" y="590" on="0"/>
        <pt x="357" y="590" on="1"/>
        <pt x="383" y="590" on="0"/>
        <pt x="439" y="612" on="0"/>
        <pt x="460" y="626" on="1"/>
        <pt x="460" y="548" on="1"/>
        <pt x="437" y="533" on="0"/>
        <pt x="376" y="515" on="0"/>
        <pt x="348" y="515" on="1"/>
        <pt x="327" y="515" on="0"/>
        <pt x="286" y="527" on="0"/>
        <pt x="245" y="542" on="0"/>
        <pt x="204" y="554" on="0"/>
        <pt x="183" y="554" on="1"/>
        <pt x="157" y="554" on="0"/>
        <pt x="101" y="532" on="0"/>
        <pt x="80" y="518" on="1"/>
      </contour>
    </TTGlyph>
    <TTGlyph name="exclamdown" xMin="220" yMin="260" xMax="320" yMax="360">
      <contour>
        <pt x="220" y="260" on="1"/>
        <pt x="220" y="360" on="1"/>
        <pt x="320" y="360" on="1"/>
        <pt x="320" y="260" on="1"/>
      </contour>
    </TTGlyph>
    <TTGlyph name="f" xMin="156" yMin="0" xMax="384" yMax="495">
      <contour>
        <pt x="384" y="119" on="1"/>
        <pt x="384" y="56" on="0"/>
        <pt x="325" y="0" on="0"/>
        <pt x="257" y="0" on="1"/>
        <pt x="156" y="0" on="1"/>
        <pt x="156" y="64" on="1"/>
        <pt x="254" y="64" on="1"/>
        <pt x="310" y="64" on="0"/>
        <pt x="310" y="116" on="1"/>
        <pt x="310" y="187" on="1"/>
        <pt x="310" y="212" on="0"/>
        <pt x="279" y="240" on="0"/>
        <pt x="255" y="240" on="1"/>
        <pt x="164" y="240" on="1"/>
        <pt x="164" y="495" on="1"/>
        <pt x="374" y="495" on="1"/>
        <pt x="374" y="432" on="1"/>
        <pt x="237" y="432" on="1"/>
        <pt x="237" y="304" on="1"/>
        <pt x="261" y="304" on="1"/>
        <pt x="316" y="304" on="0"/>
        <pt x="384" y="248" on="0"/>
        <pt x="384" y="185" on="1"/>
        <pt x="384" y="119" on="1"/>
      </contour>
    </TTGlyph>
    <TTGlyph name="fi" xMin="220" yMin="260" xMax="320" yMax="360">
      <contour>
        <pt x="220" y="260" on="1"/>
        <pt x="220" y="360" on="1"/>
        <pt x="320" y="360" on="1"/>
        <pt x="320" y="260" on="1"/>
      </contour>
    </TTGlyph>
    <TTGlyph name="five" xMin="220" yMin="260" xMax="320" yMax="360">
      <contour>
        <pt x="220" y="260" on="1"/>
        <pt x="220" y="360" on="1"/>
        <pt x="320" y="360" on="1"/>
        <pt x="320" y="260" on="1"/>
      </contour>
    </TTGlyph>
    <TTGlyph name="fl" xMin="220" yMin="260" xMax="320" yMax="360">
      <contour>
        <pt x="220" y="260" on="1"/>
        <pt x="220" y="360" on="1"/>
        <pt x="320" y="360" on="1"/>
        <pt x="320" y="260" on="1"/>
      </contour>
    </TTGlyph>
    <TTGlyph name="florin" xMin="220" yMin="260" xMax="320" yMax="360">
      <contour>
        <pt x="220" y="260" on="1"/>
        <pt x="220" y="360" on="1"/>
        <pt x="320" y="360" on="1"/>
        <pt x="320" y="260" on="1"/>
      </contour>
    </TTGlyph>
    <TTGlyph name="four" xMin="220" yMin="260" xMax="320" yMax="360">
      <contour>
        <pt x="220" y="260" on="1"/>
        <pt x="220" y="360" on="1"/>
        <pt x="320" y="360" on="1"/>
        <pt x="320" y="260" on="1"/>
      </contour>
    </TTGlyph>
    <TTGlyph name="fraction" xMin="220" yMin="260" xMax="320" yMax="360">
      <contour>
        <pt x="220" y="260" on="1"/>
        <pt x="220" y="360" on="1"/>
        <pt x="320" y="360" on="1"/>
        <pt x="320" y="260" on="1"/>
      </contour>
    </TTGlyph>
    <TTGlyph name="g" xMin="137" yMin="0" xMax="402" yMax="495">
      <contour>
        <pt x="402" y="128" on="1"/>
        <pt x="402" y="64" on="0"/>
        <pt x="332" y="0" on="0"/>
        <pt x="284" y="0" on="1"/>
        <pt x="255" y="0" on="1"/>
        <pt x="207" y="0" on="0"/>
        <pt x="137" y="64" on="0"/>
        <pt x="137" y="128" on="1"/>
        <pt x="137" y="362" on="1"/>
        <pt x="137" y="427" on="0"/>
        <pt x="205" y="495" on="0"/>
        <pt x="270" y="495" on="1"/>
        <pt x="367" y="495" on="1"/>
        <pt x="367" y="431" on="1"/>
        <pt x="268" y="431" on="1"/>
        <pt x="239" y="431" on="0"/>
        <pt x="210" y="402" on="0"/>
        <pt x="210" y="379" on="1"/>
        <pt x="210" y="315" on="1"/>
        <pt x="274" y="315" on="1"/>
        <pt x="337" y="315" on="0"/>
        <pt x="402" y="257" on="0"/>
        <pt x="402" y="192" on="1"/>
        <pt x="402" y="128" on="1"/>
      </contour>
      <contour>
        <pt x="210" y="251" on="1"/>
        <pt x="210" y="121" on="1"/>
        <pt x="210" y="98" on="0"/>
        <pt x="230" y="64" on="0"/>
        <pt x="259" y="64" on="1"/>
        <pt x="280" y="64" on="1"/>
        <pt x="309" y="64" on="0"/>
        <pt x="329" y="98" on="0"/>
        <pt x="329" y="121" on="1"/>
        <pt x="329" y="199" on="1"/>
        <pt x="329" y="222" on="0"/>
        <pt x="303" y="251" on="0"/>
        <pt x="274" y="251" on="1"/>
      </contour>
    </TTGlyph>
    <TTGlyph name="germandbls" xMin="220" yMin="260" xMax="320" yMax="360">
      <contour>
        <pt x="220" y="260" on="1"/>
        <pt x="220" y="360" on="1"/>
        <pt x="320" y="360" on="1"/>
        <pt x="320" y="260" on="1"/>
      </contour>
    </TTGlyph>
    <TTGlyph name="grave" xMin="195" yMin="235" xMax="345" yMax="390">
      <contour>
        <pt x="195" y="235" on="1"/>
        <pt x="195" y="390" on="1"/>
        <pt x="345" y="390" on="1"/>
        <pt x="345" y="235" on="1"/>
      </contour>
    </TTGlyph>
    <TTGlyph name="greater" xMin="80" yMin="0" xMax="460" yMax="564">
      <contour>
        <pt x="80" y="125" on="1"/>
        <pt x="80" y="219" on="1"/>
        <pt x="388" y="336" on="1"/>
        <pt x="80" y="472" on="1"/>
        <pt x="80" y="564" on="1"/>
        <pt x="460" y="385" on="1"/>
        <pt x="460" y="280" on="1"/>
      </contour>
      <contour>
        <pt x="80" y="0" on="1"/>
        <pt x="80" y="75" on="1"/>
        <pt x="460" y="75" on="1"/>
        <pt x="460" y="0" on="1"/>
      </contour>
    </TTGlyph>
    <TTGlyph name="greaterequal" xMin="220" yMin="260" xMax="320" yMax="360">
      <contour>
        <pt x="220" y="260" on="1"/>
        <pt x="220" y="360" on="1"/>
        <pt x="320" y="360" on="1"/>
        <pt x="320" y="260" on="1"/>
      </contour>
    </TTGlyph>
    <TTGlyph name="guillemotleft" xMin="220" yMin="260" xMax="320" yMax="360">
      <contour>
        <pt x="220" y="260" on="1"/>
        <pt x="220" y="360" on="1"/>
        <pt x="320" y="360" on="1"/>
        <pt x="320" y="260" on="1"/>
      </contour>
    </TTGlyph>
    <TTGlyph name="guillemotright" xMin="220" yMin="260" xMax="320" yMax="360">
      <contour>
        <pt x="220" y="260" on="1"/>
        <pt x="220" y="360" on="1"/>
        <pt x="320" y="360" on="1"/>
        <pt x="320" y="260" on="1"/>
      </contour>
    </TTGlyph>
    <TTGlyph name="guilsinglleft" xMin="220" yMin="260" xMax="320" yMax="360">
      <contour>
        <pt x="220" y="260" on="1"/>
        <pt x="220" y="360" on="1"/>
        <pt x="320" y="360" on="1"/>
        <pt x="320" y="260" on="1"/>
      </contour>
    </TTGlyph>
    <TTGlyph name="guilsinglright" xMin="220" yMin="260" xMax="320" yMax="360">
      <contour>
        <pt x="220" y="260" on="1"/>
        <pt x="220" y="360" on="1"/>
        <pt x="320" y="360" on="1"/>
        <pt x="320" y="260" on="1"/>
      </contour>
    </TTGlyph>
    <TTGlyph name="h" xMin="155" yMin="0" xMax="384" yMax="495">
      <contour>
        <pt x="266" y="0" on="1"/>
        <pt x="192" y="0" on="1"/>
        <pt x="314" y="430" on="1"/>
        <pt x="155" y="430" on="1"/>
        <pt x="155" y="495" on="1"/>
        <pt x="384" y="495" on="1"/>
        <pt x="384" y="414" on="1"/>
      </contour>
    </TTGlyph>
    <TTGlyph name="hungarumlaut" xMin="220" yMin="260" xMax="320" yMax="360">
      <contour>
        <pt x="220" y="260" on="1"/>
        <pt x="220" y="360" on="1"/>
        <pt x="320" y="360" on="1"/>
        <pt x="320" y="260" on="1"/>
      </contour>
    </TTGlyph>
    <TTGlyph name="hyphen" xMin="107" yMin="275" xMax="432" yMax="350">
      <contour>
        <pt x="107" y="275" on="1"/>
        <pt x="107" y="350" on="1"/>
        <pt x="432" y="350" on="1"/>
        <pt x="432" y="275" on="1"/>
      </contour>
    </TTGlyph>
    <TTGlyph name="i" xMin="131" yMin="0" xMax="409" yMax="495">
      <contour>
        <pt x="409" y="119" on="1"/>
        <pt x="409" y="56" on="0"/>
        <pt x="340" y="0" on="0"/>
        <pt x="272" y="0" on="1"/>
        <pt x="268" y="0" on="1"/>
        <pt x="200" y="0" on="0"/>
        <pt x="131" y="56" on="0"/>
        <pt x="131" y="119" on="1"/>
        <pt x="131" y="166" on="1"/>
        <pt x="131" y="232" on="0"/>
        <pt x="179" y="258" on="1"/>
        <pt x="140" y="286" on="0"/>
        <pt x="140" y="345" on="1"/>
        <pt x="140" y="378" on="1"/>
        <pt x="140" y="440" on="0"/>
        <pt x="211" y="495" on="0"/>
        <pt x="268" y="495" on="1"/>
        <pt x="272" y="495" on="1"/>
        <pt x="299" y="495" on="0"/>
        <pt x="346" y="482" on="0"/>
        <pt x="381" y="453" on="0"/>
        <pt x="400" y="409" on="0"/>
        <pt x="400" y="378" on="1"/>
        <pt x="400" y="345" on="1"/>
        <pt x="400" y="286" on="0"/>
        <pt x="361" y="258" on="1"/>
        <pt x="409" y="232" on="0"/>
        <pt x="409" y="166" on="1"/>
        <pt x="409" y="119" on="1"/>
      </contour>
      <contour>
        <pt x="336" y="171" on="1"/>
        <pt x="336" y="196" on="0"/>
        <pt x="309" y="224" on="0"/>
        <pt x="284" y="224" on="1"/>
        <pt x="257" y="224" on="1"/>
        <pt x="232" y="224" on="0"/>
        <pt x="204" y="196" on="0"/>
        <pt x="204" y="171" on="1"/>
        <pt x="204" y="117" on="1"/>
        <pt x="204" y="63" on="0"/>
        <pt x="253" y="63" on="1"/>
        <pt x="281" y="63" on="1"/>
        <pt x="310" y="63" on="0"/>
        <pt x="336" y="88" on="0"/>
        <pt x="336" y="117" on="1"/>
        <pt x="336" y="171" on="1"/>
      </contour>
      <contour>
        <pt x="256" y="432" on="1"/>
        <pt x="230" y="432" on="0"/>
        <pt x="212" y="404" on="0"/>
        <pt x="212" y="378" on="1"/>
        <pt x="212" y="336" on="1"/>
        <pt x="212" y="312" on="0"/>
        <pt x="237" y="289" on="0"/>
        <pt x="258" y="287" on="1"/>
        <pt x="277" y="287" on="1"/>
        <pt x="300" y="287" on="0"/>
        <pt x="328" y="310" on="0"/>
        <pt x="328" y="336" on="1"/>
        <pt x="328" y="378" on="1"/>
        <pt x="328" y="407" on="0"/>
        <pt x="306" y="432" on="0"/>
        <pt x="278" y="432" on="1"/>
      </contour>
    </TTGlyph>
    <TTGlyph name="iacute" xMin="220" yMin="260" xMax="320" yMax="360">
      <contour>
        <pt x="220" y="260" on="1"/>
        <pt x="220" y="360" on="1"/>
        <pt x="320" y="360" on="1"/>
        <pt x="320" y="260" on="1"/>
      </contour>
    </TTGlyph>
    <TTGlyph name="icircumflex" xMin="220" yMin="260" xMax="320" yMax="360">
      <contour>
        <pt x="220" y="260" on="1"/>
        <pt x="220" y="360" on="1"/>
        <pt x="320" y="360" on="1"/>
        <pt x="320" y="260" on="1"/>
      </contour>
    </TTGlyph>
    <TTGlyph name="idieresis" xMin="220" yMin="260" xMax="320" yMax="360">
      <contour>
        <pt x="220" y="260" on="1"/>
        <pt x="220" y="360" on="1"/>
        <pt x="320" y="360" on="1"/>
        <pt x="320" y="260" on="1"/>
      </contour>
    </TTGlyph>
    <TTGlyph name="igrave" xMin="220" yMin="260" xMax="320" yMax="360">
      <contour>
        <pt x="220" y="260" on="1"/>
        <pt x="220" y="360" on="1"/>
        <pt x="320" y="360" on="1"/>
        <pt x="320" y="260" on="1"/>
      </contour>
    </TTGlyph>
    <TTGlyph name="infinity" xMin="220" yMin="260" xMax="320" yMax="360">
      <contour>
        <pt x="220" y="260" on="1"/>
        <pt x="220" y="360" on="1"/>
        <pt x="320" y="360" on="1"/>
        <pt x="320" y="260" on="1"/>
      </contour>
    </TTGlyph>
    <TTGlyph name="integral" xMin="220" yMin="260" xMax="320" yMax="360">
      <contour>
        <pt x="220" y="260" on="1"/>
        <pt x="220" y="360" on="1"/>
        <pt x="320" y="360" on="1"/>
        <pt x="320" y="260" on="1"/>
      </contour>
    </TTGlyph>
    <TTGlyph name="j" xMin="137" yMin="1" xMax="402" yMax="496">
      <contour>
        <pt x="137" y="368" on="1"/>
        <pt x="137" y="400" on="0"/>
        <pt x="156" y="448" on="0"/>
        <pt x="188" y="480" on="0"/>
        <pt x="231" y="496" on="0"/>
        <pt x="255" y="496" on="1"/>
        <pt x="284" y="496" on="1"/>
        <pt x="308" y="496" on="0"/>
        <pt x="351" y="480" on="0"/>
        <pt x="383" y="448" on="0"/>
        <pt x="402" y="400" on="0"/>
        <pt x="402" y="368" on="1"/>
        <pt x="402" y="134" on="1"/>
        <pt x="402" y="69" on="0"/>
        <pt x="335" y="1" on="0"/>
        <pt x="270" y="1" on="1"/>
        <pt x="172" y="1" on="1"/>
        <pt x="172" y="65" on="1"/>
        <pt x="272" y="65" on="1"/>
        <pt x="301" y="65" on="0"/>
        <pt x="330" y="94" on="0"/>
        <pt x="330" y="117" on="1"/>
        <pt x="330" y="184" on="1"/>
        <pt x="265" y="184" on="1"/>
        <pt x="202" y="184" on="0"/>
        <pt x="137" y="242" on="0"/>
        <pt x="137" y="307" on="1"/>
        <pt x="137" y="368" on="1"/>
      </contour>
      <contour>
        <pt x="330" y="248" on="1"/>
        <pt x="330" y="375" on="1"/>
        <pt x="330" y="398" on="0"/>
        <pt x="309" y="432" on="0"/>
        <pt x="280" y="432" on="1"/>
        <pt x="259" y="432" on="1"/>
        <pt x="230" y="432" on="0"/>
        <pt x="210" y="398" on="0"/>
        <pt x="210" y="375" on="1"/>
        <pt x="210" y="300" on="1"/>
        <pt x="210" y="277" on="0"/>
        <pt x="236" y="248" on="0"/>
        <pt x="265" y="248" on="1"/>
      </contour>
    </TTGlyph>
    <TTGlyph name="k" xMin="80" yMin="275" xMax="460" yMax="350">
      <contour>
        <pt x="80" y="275" on="1"/>
        <pt x="80" y="350" on="1"/>
        <pt x="460" y="350" on="1"/>
        <pt x="460" y="275" on="1"/>
      </contour>
    </TTGlyph>
    <TTGlyph name="l" xMin="48" yMin="0" xMax="492" yMax="500">
      <contour>
        <pt x="127" y="0" on="1"/>
        <pt x="127" y="427" on="1"/>
        <pt x="48" y="427" on="1"/>
        <pt x="48" y="500" on="1"/>
        <pt x="492" y="500" on="1"/>
        <pt x="492" y="427" on="1"/>
        <pt x="402" y="427" on="1"/>
        <pt x="402" y="105" on="1"/>
        <pt x="402" y="89" on="0"/>
        <pt x="417" y="75" on="0"/>
        <pt x="437" y="75" on="1"/>
        <pt x="452" y="75" on="1"/>
        <pt x="452" y="0" on="1"/>
        <pt x="402" y="0" on="1"/>
        <pt x="387" y="0" on="0"/>
        <pt x="357" y="10" on="0"/>
        <pt x="333" y="33" on="0"/>
        <pt x="317" y="72" on="0"/>
        <pt x="317" y="100" on="1"/>
        <pt x="317" y="427" on="1"/>
        <pt x="212" y="427" on="1"/>
        <pt x="212" y="0" on="1"/>
      </contour>
    </TTGlyph>
    <TTGlyph name="less" xMin="80" yMin="0" xMax="460" yMax="564">
      <contour>
        <pt x="80" y="280" on="1"/>
        <pt x="80" y="385" on="1"/>
        <pt x="460" y="564" on="1"/>
        <pt x="460" y="472" on="1"/>
        <pt x="152" y="336" on="1"/>
        <pt x="460" y="219" on="1"/>
        <pt x="460" y="125" on="1"/>
      </contour>
      <contour>
        <pt x="80" y="0" on="1"/>
        <pt x="80" y="75" on="1"/>
        <pt x="460" y="75" on="1"/>
        <pt x="460" y="0" on="1"/>
      </contour>
    </TTGlyph>
    <TTGlyph name="lessequal" xMin="220" yMin="260" xMax="320" yMax="360">
      <contour>
        <pt x="220" y="260" on="1"/>
        <pt x="220" y="360" on="1"/>
        <pt x="320" y="360" on="1"/>
        <pt x="320" y="260" on="1"/>
      </contour>
    </TTGlyph>
    <TTGlyph name="logicaland" xMin="220" yMin="260" xMax="320" yMax="360">
      <contour>
        <pt x="220" y="260" on="1"/>
        <pt x="220" y="360" on="1"/>
        <pt x="320" y="360" on="1"/>
        <pt x="320" y="260" on="1"/>
      </contour>
    </TTGlyph>
    <TTGlyph name="logicalnot" xMin="220" yMin="260" xMax="320" yMax="360">
      <contour>
        <pt x="220" y="260" on="1"/>
        <pt x="220" y="360" on="1"/>
        <pt x="320" y="360" on="1"/>
        <pt x="320" y="260" on="1"/>
      </contour>
    </TTGlyph>
    <TTGlyph name="lozenge" xMin="220" yMin="260" xMax="320" yMax="360">
      <contour>
        <pt x="220" y="260" on="1"/>
        <pt x="220" y="360" on="1"/>
        <pt x="320" y="360" on="1"/>
        <pt x="320" y="260" on="1"/>
      </contour>
    </TTGlyph>
    <TTGlyph name="lslash" xMin="220" yMin="260" xMax="320" yMax="360">
      <contour>
        <pt x="220" y="260" on="1"/>
        <pt x="220" y="360" on="1"/>
        <pt x="320" y="360" on="1"/>
        <pt x="320" y="260" on="1"/>
      </contour>
    </TTGlyph>
    <TTGlyph name="m" xMin="94" yMin="0" xMax="445" yMax="700">
      <contour>
        <pt x="94" y="280" on="1"/>
        <pt x="94" y="366" on="0"/>
        <pt x="177" y="440" on="0"/>
        <pt x="262" y="440" on="1"/>
        <pt x="360" y="440" on="1"/>
        <pt x="360" y="549" on="1"/>
        <pt x="360" y="579" on="0"/>
        <pt x="315" y="624" on="0"/>
        <pt x="277" y="624" on="1"/>
        <pt x="142" y="624" on="1"/>
        <pt x="142" y="700" on="1"/>
        <pt x="267" y="700" on="1"/>
        <pt x="354" y="700" on="0"/>
        <pt x="445" y="616" on="0"/>
        <pt x="445" y="530" on="1"/>
        <pt x="445" y="170" on="1"/>
        <pt x="445" y="127" on="0"/>
        <pt x="420" y="63" on="0"/>
        <pt x="376" y="21" on="0"/>
        <pt x="319" y="0" on="0"/>
        <pt x="287" y="0" on="1"/>
        <pt x="252" y="0" on="1"/>
        <pt x="220" y="0" on="0"/>
        <pt x="163" y="21" on="0"/>
        <pt x="119" y="63" on="0"/>
        <pt x="94" y="127" on="0"/>
        <pt x="94" y="170" on="1"/>
      </contour>
      <contour>
        <pt x="252" y="365" on="1"/>
        <pt x="214" y="365" on="0"/>
        <pt x="179" y="329" on="0"/>
        <pt x="179" y="299" on="1"/>
        <pt x="179" y="151" on="1"/>
        <pt x="179" y="121" on="0"/>
        <pt x="219" y="75" on="0"/>
        <pt x="257" y="75" on="1"/>
        <pt x="282" y="75" on="1"/>
        <pt x="320" y="75" on="0"/>
        <pt x="360" y="121" on="0"/>
        <pt x="360" y="151" on="1"/>
        <pt x="360" y="365" on="1"/>
      </contour>
    </TTGlyph>
    <TTGlyph name="macron" xMin="220" yMin="260" xMax="320" yMax="360">
      <contour>
        <pt x="220" y="260" on="1"/>
        <pt x="220" y="360" on="1"/>
        <pt x="320" y="360" on="1"/>
        <pt x="320" y="260" on="1"/>
      </contour>
    </TTGlyph>
    <TTGlyph name="minus" xMin="220" yMin="260" xMax="320" yMax="360">
      <contour>
        <pt x="220" y="260" on="1"/>
        <pt x="220" y="360" on="1"/>
        <pt x="320" y="360" on="1"/>
        <pt x="320" y="260" on="1"/>
      </contour>
    </TTGlyph>
    <TTGlyph name="mu" xMin="220" yMin="260" xMax="320" yMax="360">
      <contour>
        <pt x="220" y="260" on="1"/>
        <pt x="220" y="360" on="1"/>
        <pt x="320" y="360" on="1"/>
        <pt x="320" y="260" on="1"/>
      </contour>
    </TTGlyph>
    <TTGlyph name="multiply" xMin="220" yMin="260" xMax="320" yMax="360">
      <contour>
        <pt x="220" y="260" on="1"/>
        <pt x="220" y="360" on="1"/>
        <pt x="320" y="360" on="1"/>
        <pt x="320" y="260" on="1"/>
      </contour>
    </TTGlyph>
    <TTGlyph name="n" xMin="69" yMin="-235" xMax="471" yMax="820">
      <contour>
        <pt x="190" y="-160" on="1"/>
        <pt x="207" y="-160" on="0"/>
        <pt x="225" y="-143" on="0"/>
        <pt x="225" y="-130" on="1"/>
        <pt x="225" y="710" on="1"/>
        <pt x="225" y="763" on="0"/>
        <pt x="284" y="820" on="0"/>
        <pt x="329" y="820" on="1"/>
        <pt x="471" y="820" on="1"/>
        <pt x="471" y="745" on="1"/>
        <pt x="345" y="745" on="1"/>
        <pt x="328" y="745" on="0"/>
        <pt x="310" y="728" on="0"/>
        <pt x="310" y="715" on="1"/>
        <pt x="310" y="-125" on="1"/>
        <pt x="310" y="-178" on="0"/>
        <pt x="251" y="-235" on="0"/>
        <pt x="206" y="-235" on="1"/>
        <pt x="69" y="-235" on="1"/>
        <pt x="69" y="-160" on="1"/>
      </contour>
    </TTGlyph>
    <TTGlyph name="nine" xMin="220" yMin="260" xMax="320" yMax="360">
      <contour>
        <pt x="220" y="260" on="1"/>
        <pt x="220" y="360" on="1"/>
        <pt x="320" y="360" on="1"/>
        <pt x="320" y="260" on="1"/>
      </contour>
    </TTGlyph>
    <TTGlyph name="notequal" xMin="220" yMin="260" xMax="320" yMax="360">
      <contour>
        <pt x="220" y="260" on="1"/>
        <pt x="220" y="360" on="1"/>
        <pt x="320" y="360" on="1"/>
        <pt x="320" y="260" on="1"/>
      </contour>
    </TTGlyph>
    <TTGlyph name="ntilde" xMin="220" yMin="260" xMax="320" yMax="360">
      <contour>
        <pt x="220" y="260" on="1"/>
        <pt x="220" y="360" on="1"/>
        <pt x="320" y="360" on="1"/>
        <pt x="320" y="260" on="1"/>
      </contour>
    </TTGlyph>
    <TTGlyph name="numbersign" xMin="40" yMin="0" xMax="500" yMax="700">
      <contour>
        <pt x="40" y="0" on="1"/>
        <pt x="218" y="700" on="1"/>
        <pt x="329" y="700" on="1"/>
        <pt x="500" y="0" on="1"/>
      </contour>
      <contour>
        <pt x="273" y="625" on="1"/>
        <pt x="148" y="75" on="1"/>
        <pt x="392" y="75" on="1"/>
      </contour>
    </TTGlyph>
    <TTGlyph name="o" xMin="57" yMin="128" xMax="482" yMax="620">
      <contour>
        <pt x="313" y="258" on="1"/>
        <pt x="482" y="393" on="1"/>
        <pt x="482" y="291" on="1"/>
        <pt x="270" y="128" on="1"/>
        <pt x="57" y="291" on="1"/>
        <pt x="57" y="393" on="1"/>
        <pt x="227" y="257" on="1"/>
        <pt x="227" y="620" on="1"/>
        <pt x="313" y="620" on="1"/>
      </contour>
    </TTGlyph>
    <TTGlyph name="oacute" xMin="220" yMin="260" xMax="320" yMax="360">
      <contour>
        <pt x="220" y="260" on="1"/>
        <pt x="220" y="360" on="1"/>
        <pt x="320" y="360" on="1"/>
        <pt x="320" y="260" on="1"/>
      </contour>
    </TTGlyph>
    <TTGlyph name="ocircumflex" xMin="220" yMin="260" xMax="320" yMax="360">
      <contour>
        <pt x="220" y="260" on="1"/>
        <pt x="220" y="360" on="1"/>
        <pt x="320" y="360" on="1"/>
        <pt x="320" y="260" on="1"/>
      </contour>
    </TTGlyph>
    <TTGlyph name="odieresis" xMin="220" yMin="260" xMax="320" yMax="360">
      <contour>
        <pt x="220" y="260" on="1"/>
        <pt x="220" y="360" on="1"/>
        <pt x="320" y="360" on="1"/>
        <pt x="320" y="260" on="1"/>
      </contour>
    </TTGlyph>
    <TTGlyph name="oe" xMin="220" yMin="260" xMax="320" yMax="360">
      <contour>
        <pt x="220" y="260" on="1"/>
        <pt x="220" y="360" on="1"/>
        <pt x="320" y="360" on="1"/>
        <pt x="320" y="260" on="1"/>
      </contour>
    </TTGlyph>
    <TTGlyph name="ogonek" xMin="220" yMin="260" xMax="320" yMax="360">
      <contour>
        <pt x="220" y="260" on="1"/>
        <pt x="220" y="360" on="1"/>
        <pt x="320" y="360" on="1"/>
        <pt x="320" y="260" on="1"/>
      </contour>
    </TTGlyph>
    <TTGlyph name="ograve" xMin="220" yMin="260" xMax="320" yMax="360">
      <contour>
        <pt x="220" y="260" on="1"/>
        <pt x="220" y="360" on="1"/>
        <pt x="320" y="360" on="1"/>
        <pt x="320" y="260" on="1"/>
      </contour>
    </TTGlyph>
    <TTGlyph name="one" xMin="220" yMin="260" xMax="320" yMax="360">
      <contour>
        <pt x="220" y="260" on="1"/>
        <pt x="220" y="360" on="1"/>
        <pt x="320" y="360" on="1"/>
        <pt x="320" y="260" on="1"/>
      </contour>
    </TTGlyph>
    <TTGlyph name="onehalf" xMin="220" yMin="260" xMax="320" yMax="360">
      <contour>
        <pt x="220" y="260" on="1"/>
        <pt x="220" y="360" on="1"/>
        <pt x="320" y="360" on="1"/>
        <pt x="320" y="260" on="1"/>
      </contour>
    </TTGlyph>
    <TTGlyph name="onequarter" xMin="220" yMin="260" xMax="320" yMax="360">
      <contour>
        <pt x="220" y="260" on="1"/>
        <pt x="220" y="360" on="1"/>
        <pt x="320" y="360" on="1"/>
        <pt x="320" y="260" on="1"/>
      </contour>
    </TTGlyph>
    <TTGlyph name="onesuperior" xMin="220" yMin="260" xMax="320" yMax="360">
      <contour>
        <pt x="220" y="260" on="1"/>
        <pt x="220" y="360" on="1"/>
        <pt x="320" y="360" on="1"/>
        <pt x="320" y="260" on="1"/>
      </contour>
    </TTGlyph>
    <TTGlyph name="ordfeminine" xMin="220" yMin="260" xMax="320" yMax="360">
      <contour>
        <pt x="220" y="260" on="1"/>
        <pt x="220" y="360" on="1"/>
        <pt x="320" y="360" on="1"/>
        <pt x="320" y="260" on="1"/>
      </contour>
    </TTGlyph>
    <TTGlyph name="ordmasculine" xMin="220" yMin="260" xMax="320" yMax="360">
      <contour>
        <pt x="220" y="260" on="1"/>
        <pt x="220" y="360" on="1"/>
        <pt x="320" y="360" on="1"/>
        <pt x="320" y="260" on="1"/>
      </contour>
    </TTGlyph>
    <TTGlyph name="oslash" xMin="220" yMin="260" xMax="320" yMax="360">
      <contour>
        <pt x="220" y="260" on="1"/>
        <pt x="220" y="360" on="1"/>
        <pt x="320" y="360" on="1"/>
        <pt x="320" y="260" on="1"/>
      </contour>
    </TTGlyph>
    <TTGlyph name="otilde" xMin="220" yMin="260" xMax="320" yMax="360">
      <contour>
        <pt x="220" y="260" on="1"/>
        <pt x="220" y="360" on="1"/>
        <pt x="320" y="360" on="1"/>
        <pt x="320" y="260" on="1"/>
      </contour>
    </TTGlyph>
    <TTGlyph name="p" xMin="24" yMin="158" xMax="516" yMax="583">
      <contour>
        <pt x="157" y="329" on="1"/>
        <pt x="292" y="158" on="1"/>
        <pt x="187" y="158" on="1"/>
        <pt x="24" y="370" on="1"/>
        <pt x="187" y="583" on="1"/>
        <pt x="292" y="583" on="1"/>
        <pt x="156" y="411" on="1"/>
        <pt x="516" y="411" on="1"/>
        <pt x="516" y="329" on="1"/>
      </contour>
    </TTGlyph>
    <TTGlyph name="paragraph" xMin="74" yMin="0" xMax="465" yMax="700">
      <contour>
        <pt x="247" y="0" on="1"/>
        <pt x="247" y="374" on="1"/>
        <pt x="241" y="374" on="1"/>
        <pt x="155" y="374" on="0"/>
        <pt x="74" y="441" on="0"/>
        <pt x="74" y="527" on="1"/>
        <pt x="74" y="540" on="1"/>
        <pt x="74" y="626" on="0"/>
        <pt x="154" y="700" on="0"/>
        <pt x="241" y="700" on="1"/>
        <pt x="330" y="700" on="1"/>
        <pt x="330" y="630" on="1"/>
        <pt x="230" y="630" on="1"/>
        <pt x="192" y="630" on="0"/>
        <pt x="155" y="590" on="0"/>
        <pt x="155" y="560" on="1"/>
        <pt x="155" y="507" on="1"/>
        <pt x="155" y="477" on="0"/>
        <pt x="192" y="442" on="0"/>
        <pt x="230" y="442" on="1"/>
        <pt x="330" y="442" on="1"/>
        <pt x="330" y="0" on="1"/>
      </contour>
      <contour>
        <pt x="385" y="0" on="1"/>
        <pt x="385" y="700" on="1"/>
        <pt x="465" y="700" on="1"/>
        <pt x="465" y="0" on="1"/>
      </contour>
    </TTGlyph>
    <TTGlyph name="parenleft" xMin="222" yMin="610" xMax="317" yMax="700">
      <contour>
        <pt x="222" y="610" on="1"/>
        <pt x="222" y="700" on="1"/>
        <pt x="317" y="700" on="1"/>
        <pt x="317" y="610" on="1"/>
      </contour>
    </TTGlyph>
    <TTGlyph name="parenright" xMin="178" yMin="548" xMax="362" yMax="747">
      <contour>
        <pt x="362" y="633" on="1"/>
        <pt x="362" y="590" on="0"/>
        <pt x="311" y="548" on="0"/>
        <pt x="273" y="548" on="1"/>
        <pt x="267" y="548" on="1"/>
        <pt x="229" y="548" on="0"/>
        <pt x="178" y="590" on="0"/>
        <pt x="178" y="633" on="1"/>
        <pt x="178" y="662" on="1"/>
        <pt x="178" y="706" on="0"/>
        <pt x="229" y="747" on="0"/>
        <pt x="267" y="747" on="1"/>
        <pt x="273" y="747" on="1"/>
        <pt x="311" y="747" on="0"/>
        <pt x="362" y="706" on="0"/>
        <pt x="362" y="662" on="1"/>
        <pt x="362" y="633" on="1"/>
      </contour>
      <contour>
        <pt x="305" y="663" on="1"/>
        <pt x="305" y="678" on="0"/>
        <pt x="292" y="701" on="0"/>
        <pt x="273" y="701" on="1"/>
        <pt x="267" y="701" on="1"/>
        <pt x="248" y="701" on="0"/>
        <pt x="233" y="678" on="0"/>
        <pt x="233" y="663" on="1"/>
        <pt x="233" y="632" on="1"/>
        <pt x="233" y="617" on="0"/>
        <pt x="248" y="594" on="0"/>
        <pt x="267" y="594" on="1"/>
        <pt x="273" y="594" on="1"/>
        <pt x="292" y="594" on="0"/>
        <pt x="305" y="617" on="0"/>
        <pt x="305" y="632" on="1"/>
      </contour>
    </TTGlyph>
    <TTGlyph name="partialdiff" xMin="220" yMin="260" xMax="320" yMax="360">
      <contour>
        <pt x="220" y="260" on="1"/>
        <pt x="220" y="360" on="1"/>
        <pt x="320" y="360" on="1"/>
        <pt x="320" y="260" on="1"/>
      </contour>
    </TTGlyph>
    <TTGlyph name="percent" xMin="75" yMin="0" xMax="465" yMax="700">
      <contour>
        <pt x="325" y="0" on="1"/>
        <pt x="213" y="0" on="1"/>
        <pt x="75" y="350" on="1"/>
        <pt x="215" y="700" on="1"/>
        <pt x="325" y="700" on="1"/>
        <pt x="465" y="350" on="1"/>
      </contour>
      <contour>
        <pt x="270" y="630" on="1"/>
        <pt x="162" y="350" on="1"/>
        <pt x="270" y="70" on="1"/>
        <pt x="378" y="350" on="1"/>
      </contour>
    </TTGlyph>
    <TTGlyph name="period" xMin="227" yMin="0" xMax="312" yMax="500">
      <contour>
        <pt x="227" y="0" on="1"/>
        <pt x="227" y="500" on="1"/>
        <pt x="312" y="500" on="1"/>
        <pt x="312" y="0" on="1"/>
      </contour>
    </TTGlyph>
    <TTGlyph name="periodcentered" xMin="220" yMin="260" xMax="320" yMax="360">
      <contour>
        <pt x="220" y="260" on="1"/>
        <pt x="220" y="360" on="1"/>
        <pt x="320" y="360" on="1"/>
        <pt x="320" y="260" on="1"/>
      </contour>
    </TTGlyph>
    <TTGlyph name="perthousand" xMin="220" yMin="260" xMax="320" yMax="360">
      <contour>
        <pt x="220" y="260" on="1"/>
        <pt x="220" y="360" on="1"/>
        <pt x="320" y="360" on="1"/>
        <pt x="320" y="260" on="1"/>
      </contour>
    </TTGlyph>
    <TTGlyph name="pi" xMin="220" yMin="260" xMax="320" yMax="360">
      <contour>
        <pt x="220" y="260" on="1"/>
        <pt x="220" y="360" on="1"/>
        <pt x="320" y="360" on="1"/>
        <pt x="320" y="260" on="1"/>
      </contour>
    </TTGlyph>
    <TTGlyph name="plus" xMin="181" yMin="-180" xMax="358" yMax="60">
      <contour>
        <pt x="269" y="-180" on="1"/>
        <pt x="256" y="-180" on="0"/>
        <pt x="225" y="-175" on="0"/>
        <pt x="199" y="-156" on="0"/>
        <pt x="181" y="-118" on="0"/>
        <pt x="181" y="-85" on="1"/>
        <pt x="181" y="60" on="1"/>
        <pt x="255" y="60" on="1"/>
        <pt x="255" y="-85" on="1"/>
        <pt x="255" y="-102" on="0"/>
        <pt x="271" y="-113" on="0"/>
        <pt x="287" y="-113" on="1"/>
        <pt x="358" y="-113" on="1"/>
        <pt x="358" y="-180" on="1"/>
      </contour>
    </TTGlyph>
    <TTGlyph name="plusminus" xMin="220" yMin="260" xMax="320" yMax="360">
      <contour>
        <pt x="220" y="260" on="1"/>
        <pt x="220" y="360" on="1"/>
        <pt x="320" y="360" on="1"/>
        <pt x="320" y="260" on="1"/>
      </contour>
    </TTGlyph>
    <TTGlyph name="product" xMin="220" yMin="260" xMax="320" yMax="360">
      <contour>
        <pt x="220" y="260" on="1"/>
        <pt x="220" y="360" on="1"/>
        <pt x="320" y="360" on="1"/>
        <pt x="320" y="260" on="1"/>
      </contour>
    </TTGlyph>
    <TTGlyph name="q" xMin="63" yMin="161" xMax="476" yMax="574">
      <contour>
        <pt x="378" y="318" on="1"/>
        <pt x="403" y="534" on="1"/>
        <pt x="476" y="461" on="1"/>
        <pt x="441" y="196" on="1"/>
        <pt x="175" y="161" on="1"/>
        <pt x="102" y="234" on="1"/>
        <pt x="319" y="258" on="1"/>
        <pt x="63" y="514" on="1"/>
        <pt x="123" y="574" on="1"/>
      </contour>
    </TTGlyph>
    <TTGlyph name="question" xMin="14" yMin="46" xMax="526" yMax="558">
      <contour>
        <pt x="85" y="174" on="1"/>
        <pt x="73" y="206" on="0"/>
        <pt x="73" y="252" on="1"/>
        <pt x="73" y="350" on="1"/>
        <pt x="73" y="398" on="0"/>
        <pt x="85" y="429" on="1"/>
        <pt x="14" y="501" on="1"/>
        <pt x="71" y="558" on="1"/>
        <pt x="139" y="490" on="1"/>
        <pt x="176" y="510" on="0"/>
        <pt x="243" y="510" on="1"/>
        <pt x="296" y="510" on="1"/>
        <pt x="361" y="510" on="0"/>
        <pt x="400" y="489" on="1"/>
        <pt x="469" y="558" on="1"/>
        <pt x="526" y="501" on="1"/>
        <pt x="453" y="428" on="1"/>
        <pt x="466" y="398" on="0"/>
        <pt x="466" y="350" on="1"/>
        <pt x="466" y="252" on="1"/>
        <pt x="466" y="207" on="0"/>
        <pt x="454" y="175" on="1"/>
        <pt x="526" y="103" on="1"/>
        <pt x="469" y="46" on="1"/>
        <pt x="402" y="113" on="1"/>
        <pt x="362" y="92" on="0"/>
        <pt x="296" y="92" on="1"/>
        <pt x="243" y="92" on="1"/>
        <pt x="210" y="92" on="0"/>
        <pt x="158" y="102" on="0"/>
        <pt x="138" y="113" on="1"/>
        <pt x="71" y="46" on="1"/>
        <pt x="14" y="103" on="1"/>
      </contour>
      <contour>
        <pt x="381" y="370" on="1"/>
        <pt x="381" y="400" on="0"/>
        <pt x="344" y="435" on="0"/>
        <pt x="306" y="435" on="1"/>
        <pt x="233" y="435" on="1"/>
        <pt x="195" y="435" on="0"/>
        <pt x="158" y="400" on="0"/>
        <pt x="158" y="370" on="1"/>
        <pt x="158" y="232" on="1"/>
        <pt x="158" y="202" on="0"/>
        <pt x="195" y="167" on="0"/>
        <pt x="233" y="167" on="1"/>
        <pt x="306" y="167" on="1"/>
        <pt x="344" y="167" on="0"/>
        <pt x="381" y="202" on="0"/>
        <pt x="381" y="232" on="1"/>
      </contour>
    </TTGlyph>
    <TTGlyph name="questiondown" xMin="220" yMin="260" xMax="320" yMax="360">
      <contour>
        <pt x="220" y="260" on="1"/>
        <pt x="220" y="360" on="1"/>
        <pt x="320" y="360" on="1"/>
        <pt x="320" y="260" on="1"/>
      </contour>
    </TTGlyph>
    <TTGlyph name="quotedbl" xMin="100" yMin="170" xMax="440" yMax="458">
      <contour>
        <pt x="100" y="423" on="1"/>
        <pt x="122" y="433" on="0"/>
        <pt x="141" y="441" on="1"/>
        <pt x="158" y="448" on="0"/>
        <pt x="190" y="458" on="0"/>
        <pt x="197" y="458" on="1"/>
        <pt x="212" y="458" on="1"/>
        <pt x="221" y="458" on="0"/>
        <pt x="258" y="446" on="0"/>
        <pt x="298" y="431" on="0"/>
        <pt x="334" y="418" on="0"/>
        <pt x="343" y="418" on="1"/>
        <pt x="353" y="418" on="1"/>
        <pt x="358" y="418" on="0"/>
        <pt x="386" y="429" on="0"/>
        <pt x="401" y="436" on="1"/>
        <pt x="419" y="444" on="0"/>
        <pt x="440" y="454" on="1"/>
        <pt x="440" y="374" on="1"/>
        <pt x="420" y="365" on="0"/>
        <pt x="402" y="357" on="1"/>
        <pt x="387" y="350" on="0"/>
        <pt x="359" y="339" on="0"/>
        <pt x="352" y="339" on="1"/>
        <pt x="337" y="339" on="1"/>
        <pt x="332" y="339" on="0"/>
        <pt x="296" y="352" on="0"/>
        <pt x="253" y="367" on="0"/>
        <pt x="215" y="379" on="0"/>
        <pt x="207" y="379" on="1"/>
        <pt x="197" y="379" on="1"/>
        <pt x="192" y="379" on="0"/>
        <pt x="160" y="368" on="0"/>
        <pt x="143" y="361" on="1"/>
        <pt x="123" y="353" on="0"/>
        <pt x="100" y="343" on="1"/>
      </contour>
      <contour>
        <pt x="100" y="254" on="1"/>
        <pt x="122" y="264" on="0"/>
        <pt x="141" y="272" on="1"/>
        <pt x="158" y="279" on="0"/>
        <pt x="190" y="289" on="0"/>
        <pt x="197" y="289" on="1"/>
        <pt x="212" y="289" on="1"/>
        <pt x="221" y="289" on="0"/>
        <pt x="258" y="277" on="0"/>
        <pt x="298" y="262" on="0"/>
        <pt x="334" y="249" on="0"/>
        <pt x="343" y="249" on="1"/>
        <pt x="353" y="249" on="1"/>
        <pt x="358" y="249" on="0"/>
        <pt x="386" y="260" on="0"/>
        <pt x="401" y="267" on="1"/>
        <pt x="419" y="275" on="0"/>
        <pt x="440" y="285" on="1"/>
        <pt x="440" y="205" on="1"/>
        <pt x="420" y="196" on="0"/>
        <pt x="402" y="188" on="1"/>
        <pt x="387" y="181" on="0"/>
        <pt x="359" y="170" on="0"/>
        <pt x="352" y="170" on="1"/>
        <pt x="337" y="170" on="1"/>
        <pt x="332" y="170" on="0"/>
        <pt x="296" y="183" on="0"/>
        <pt x="253" y="198" on="0"/>
        <pt x="215" y="210" on="0"/>
        <pt x="207" y="210" on="1"/>
        <pt x="197" y="210" on="1"/>
        <pt x="192" y="210" on="0"/>
        <pt x="160" y="199" on="0"/>
        <pt x="143" y="192" on="1"/>
        <pt x="123" y="184" on="0"/>
        <pt x="100" y="174" on="1"/>
      </contour>
    </TTGlyph>
    <TTGlyph name="quotedblbase" xMin="220" yMin="260" xMax="320" yMax="360">
      <contour>
        <pt x="220" y="260" on="1"/>
        <pt x="220" y="360" on="1"/>
        <pt x="320" y="360" on="1"/>
        <pt x="320" y="260" on="1"/>
      </contour>
    </TTGlyph>
    <TTGlyph name="quotedblleft" xMin="220" yMin="260" xMax="320" yMax="360">
      <contour>
        <pt x="220" y="260" on="1"/>
        <pt x="220" y="360" on="1"/>
        <pt x="320" y="360" on="1"/>
        <pt x="320" y="260" on="1"/>
      </contour>
    </TTGlyph>
    <TTGlyph name="quotedblright" xMin="220" yMin="260" xMax="320" yMax="360">
      <contour>
        <pt x="220" y="260" on="1"/>
        <pt x="220" y="360" on="1"/>
        <pt x="320" y="360" on="1"/>
        <pt x="320" y="260" on="1"/>
      </contour>
    </TTGlyph>
    <TTGlyph name="quoteleft" xMin="220" yMin="260" xMax="320" yMax="360">
      <contour>
        <pt x="220" y="260" on="1"/>
        <pt x="220" y="360" on="1"/>
        <pt x="320" y="360" on="1"/>
        <pt x="320" y="260" on="1"/>
      </contour>
    </TTGlyph>
    <TTGlyph name="quoteright" xMin="220" yMin="260" xMax="320" yMax="360">
      <contour>
        <pt x="220" y="260" on="1"/>
        <pt x="220" y="360" on="1"/>
        <pt x="320" y="360" on="1"/>
        <pt x="320" y="260" on="1"/>
      </contour>
    </TTGlyph>
    <TTGlyph name="quotesinglbase" xMin="220" yMin="260" xMax="320" yMax="360">
      <contour>
        <pt x="220" y="260" on="1"/>
        <pt x="220" y="360" on="1"/>
        <pt x="320" y="360" on="1"/>
        <pt x="320" y="260" on="1"/>
      </contour>
    </TTGlyph>
    <TTGlyph name="quotesingle" xMin="220" yMin="260" xMax="320" yMax="360">
      <contour>
        <pt x="220" y="260" on="1"/>
        <pt x="220" y="360" on="1"/>
        <pt x="320" y="360" on="1"/>
        <pt x="320" y="260" on="1"/>
      </contour>
    </TTGlyph>
    <TTGlyph name="r" xMin="63" yMin="167" xMax="476" yMax="580">
      <contour>
        <pt x="220" y="265" on="1"/>
        <pt x="436" y="240" on="1"/>
        <pt x="363" y="167" on="1"/>
        <pt x="98" y="202" on="1"/>
        <pt x="63" y="468" on="1"/>
        <pt x="136" y="541" on="1"/>
        <pt x="160" y="324" on="1"/>
        <pt x="416" y="580" on="1"/>
        <pt x="476" y="520" on="1"/>
      </contour>
    </TTGlyph>
    <TTGlyph name="radical" xMin="220" yMin="260" xMax="320" yMax="360">
      <contour>
        <pt x="220" y="260" on="1"/>
        <pt x="220" y="360" on="1"/>
        <pt x="320" y="360" on="1"/>
        <pt x="320" y="260" on="1"/>
      </contour>
    </TTGlyph>
    <TTGlyph name="registered" xMin="220" yMin="260" xMax="320" yMax="360">
      <contour>
        <pt x="220" y="260" on="1"/>
        <pt x="220" y="360" on="1"/>
        <pt x="320" y="360" on="1"/>
        <pt x="320" y="260" on="1"/>
      </contour>
    </TTGlyph>
    <TTGlyph name="ring" xMin="220" yMin="260" xMax="320" yMax="360">
      <contour>
        <pt x="220" y="260" on="1"/>
        <pt x="220" y="360" on="1"/>
        <pt x="320" y="360" on="1"/>
        <pt x="320" y="260" on="1"/>
      </contour>
    </TTGlyph>
    <TTGlyph name="s" xMin="220" yMin="260" xMax="320" yMax="360">
      <contour>
        <pt x="220" y="260" on="1"/>
        <pt x="220" y="360" on="1"/>
        <pt x="320" y="360" on="1"/>
        <pt x="320" y="260" on="1"/>
      </contour>
    </TTGlyph>
    <TTGlyph name="scaron" xMin="220" yMin="260" xMax="320" yMax="360">
      <contour>
        <pt x="220" y="260" on="1"/>
        <pt x="220" y="360" on="1"/>
        <pt x="320" y="360" on="1"/>
        <pt x="320" y="260" on="1"/>
      </contour>
    </TTGlyph>
    <TTGlyph name="section" xMin="220" yMin="260" xMax="320" yMax="360">
      <contour>
        <pt x="220" y="260" on="1"/>
        <pt x="220" y="360" on="1"/>
        <pt x="320" y="360" on="1"/>
        <pt x="320" y="260" on="1"/>
      </contour>
    </TTGlyph>
    <TTGlyph name="semicolon" xMin="220" yMin="260" xMax="320" yMax="360">
      <contour>
        <pt x="220" y="260" on="1"/>
        <pt x="220" y="360" on="1"/>
        <pt x="320" y="360" on="1"/>
        <pt x="320" y="260" on="1"/>
      </contour>
    </TTGlyph>
    <TTGlyph name="seven" xMin="220" yMin="260" xMax="320" yMax="360">
      <contour>
        <pt x="220" y="260" on="1"/>
        <pt x="220" y="360" on="1"/>
        <pt x="320" y="360" on="1"/>
        <pt x="320" y="260" on="1"/>
      </contour>
    </TTGlyph>
    <TTGlyph name="six" xMin="220" yMin="260" xMax="320" yMax="360">
      <contour>
        <pt x="220" y="260" on="1"/>
        <pt x="220" y="360" on="1"/>
        <pt x="320" y="360" on="1"/>
        <pt x="320" y="260" on="1"/>
      </contour>
    </TTGlyph>
    <TTGlyph name="slash" xMin="70" yMin="-100" xMax="470" yMax="810">
      <contour>
        <pt x="150" y="-100" on="1"/>
        <pt x="70" y="-100" on="1"/>
        <pt x="390" y="810" on="1"/>
        <pt x="470" y="810" on="1"/>
      </contour>
    </TTGlyph>
    <TTGlyph name="sterling" xMin="220" yMin="260" xMax="320" yMax="360">
      <contour>
        <pt x="220" y="260" on="1"/>
        <pt x="220" y="360" on="1"/>
        <pt x="320" y="360" on="1"/>
        <pt x="320" y="260" on="1"/>
      </contour>
    </TTGlyph>
    <TTGlyph name="summation" xMin="220" yMin="260" xMax="320" yMax="360">
      <contour>
        <pt x="220" y="260" on="1"/>
        <pt x="220" y="360" on="1"/>
        <pt x="320" y="360" on="1"/>
        <pt x="320" y="260" on="1"/>
      </contour>
    </TTGlyph>
    <TTGlyph name="t" xMin="220" yMin="260" xMax="320" yMax="360">
      <contour>
        <pt x="220" y="260" on="1"/>
        <pt x="220" y="360" on="1"/>
        <pt x="320" y="360" on="1"/>
        <pt x="320" y="260" on="1"/>
      </contour>
    </TTGlyph>
    <TTGlyph name="thorn" xMin="220" yMin="260" xMax="320" yMax="360">
      <contour>
        <pt x="220" y="260" on="1"/>
        <pt x="220" y="360" on="1"/>
        <pt x="320" y="360" on="1"/>
        <pt x="320" y="260" on="1"/>
      </contour>
    </TTGlyph>
    <TTGlyph name="three" xMin="220" yMin="260" xMax="320" yMax="360">
      <contour>
        <pt x="220" y="260" on="1"/>
        <pt x="220" y="360" on="1"/>
        <pt x="320" y="360" on="1"/>
        <pt x="320" y="260" on="1"/>
      </contour>
    </TTGlyph>
    <TTGlyph name="threequarters" xMin="220" yMin="260" xMax="320" yMax="360">
      <contour>
        <pt x="220" y="260" on="1"/>
        <pt x="220" y="360" on="1"/>
        <pt x="320" y="360" on="1"/>
        <pt x="320" y="260" on="1"/>
      </contour>
    </TTGlyph>
    <TTGlyph name="threesuperior" xMin="220" yMin="260" xMax="320" yMax="360">
      <contour>
        <pt x="220" y="260" on="1"/>
        <pt x="220" y="360" on="1"/>
        <pt x="320" y="360" on="1"/>
        <pt x="320" y="260" on="1"/>
      </contour>
    </TTGlyph>
    <TTGlyph name="tilde" xMin="220" yMin="260" xMax="320" yMax="360">
      <contour>
        <pt x="220" y="260" on="1"/>
        <pt x="220" y="360" on="1"/>
        <pt x="320" y="360" on="1"/>
        <pt x="320" y="260" on="1"/>
      </contour>
    </TTGlyph>
    <TTGlyph name="trademark" xMin="220" yMin="260" xMax="320" yMax="360">
      <contour>
        <pt x="220" y="260" on="1"/>
        <pt x="220" y="360" on="1"/>
        <pt x="320" y="360" on="1"/>
        <pt x="320" y="260" on="1"/>
      </contour>
    </TTGlyph>
    <TTGlyph name="two" xMin="220" yMin="260" xMax="320" yMax="360">
      <contour>
        <pt x="220" y="260" on="1"/>
        <pt x="220" y="360" on="1"/>
        <pt x="320" y="360" on="1"/>
        <pt x="320" y="260" on="1"/>
      </contour>
    </TTGlyph>
    <TTGlyph name="twosuperior" xMin="220" yMin="260" xMax="320" yMax="360">
      <contour>
        <pt x="220" y="260" on="1"/>
        <pt x="220" y="360" on="1"/>
        <pt x="320" y="360" on="1"/>
        <pt x="320" y="260" on="1"/>
      </contour>
    </TTGlyph>
    <TTGlyph name="u" xMin="94" yMin="0" xMax="445" yMax="750">
      <contour>
        <pt x="270" y="566" on="1"/>
        <pt x="188" y="566" on="1"/>
        <pt x="223" y="626" on="1"/>
        <pt x="147" y="626" on="1"/>
        <pt x="147" y="700" on="1"/>
        <pt x="266" y="700" on="1"/>
        <pt x="296" y="750" on="1"/>
        <pt x="378" y="750" on="1"/>
        <pt x="342" y="690" on="1"/>
        <pt x="445" y="658" on="0"/>
        <pt x="445" y="530" on="1"/>
        <pt x="445" y="170" on="1"/>
        <pt x="445" y="127" on="0"/>
        <pt x="420" y="63" on="0"/>
        <pt x="376" y="21" on="0"/>
        <pt x="319" y="0" on="0"/>
        <pt x="287" y="0" on="1"/>
        <pt x="252" y="0" on="1"/>
        <pt x="220" y="0" on="0"/>
        <pt x="163" y="21" on="0"/>
        <pt x="119" y="63" on="0"/>
        <pt x="94" y="127" on="0"/>
        <pt x="94" y="170" on="1"/>
        <pt x="94" y="300" on="1"/>
        <pt x="94" y="386" on="0"/>
        <pt x="177" y="460" on="0"/>
        <pt x="262" y="460" on="1"/>
        <pt x="360" y="460" on="1"/>
        <pt x="360" y="549" on="1"/>
        <pt x="360" y="573" on="0"/>
        <pt x="329" y="614" on="0"/>
        <pt x="303" y="622" on="1"/>
      </contour>
      <contour>
        <pt x="252" y="385" on="1"/>
        <pt x="214" y="385" on="0"/>
        <pt x="179" y="349" on="0"/>
        <pt x="179" y="319" on="1"/>
        <pt x="179" y="151" on="1"/>
        <pt x="179" y="121" on="0"/>
        <pt x="219" y="75" on="0"/>
        <pt x="257" y="75" on="1"/>
        <pt x="282" y="75" on="1"/>
        <pt x="320" y="75" on="0"/>
        <pt x="360" y="121" on="0"/>
        <pt x="360" y="151" on="1"/>
        <pt x="360" y="385" on="1"/>
      </contour>
    </TTGlyph>
    <TTGlyph name="uacute" xMin="220" yMin="260" xMax="320" yMax="360">
      <contour>
        <pt x="220" y="260" on="1"/>
        <pt x="220" y="360" on="1"/>
        <pt x="320" y="360" on="1"/>
        <pt x="320" y="260" on="1"/>
      </contour>
    </TTGlyph>
    <TTGlyph name="ucircumflex" xMin="220" yMin="260" xMax="320" yMax="360">
      <contour>
        <pt x="220" y="260" on="1"/>
        <pt x="220" y="360" on="1"/>
        <pt x="320" y="360" on="1"/>
        <pt x="320" y="260" on="1"/>
      </contour>
    </TTGlyph>
    <TTGlyph name="udieresis" xMin="220" yMin="260" xMax="320" yMax="360">
      <contour>
        <pt x="220" y="260" on="1"/>
        <pt x="220" y="360" on="1"/>
        <pt x="320" y="360" on="1"/>
        <pt x="320" y="260" on="1"/>
      </contour>
    </TTGlyph>
    <TTGlyph name="ugrave" xMin="220" yMin="260" xMax="320" yMax="360">
      <contour>
        <pt x="220" y="260" on="1"/>
        <pt x="220" y="360" on="1"/>
        <pt x="320" y="360" on="1"/>
        <pt x="320" y="260" on="1"/>
      </contour>
    </TTGlyph>
    <TTGlyph name="underscore" xMin="220" yMin="260" xMax="320" yMax="360">
      <contour>
        <pt x="220" y="260" on="1"/>
        <pt x="220" y="360" on="1"/>
        <pt x="320" y="360" on="1"/>
        <pt x="320" y="260" on="1"/>
      </contour>
    </TTGlyph>
    <TTGlyph name="uni00AD" xMin="107" yMin="275" xMax="432" yMax="350">
      <contour>
        <pt x="107" y="275" on="1"/>
        <pt x="107" y="350" on="1"/>
        <pt x="432" y="350" on="1"/>
        <pt x="432" y="275" on="1"/>
      </contour>
    </TTGlyph>
    <TTGlyph name="uni2219" xMin="220" yMin="260" xMax="320" yMax="360">
      <contour>
        <pt x="220" y="260" on="1"/>
        <pt x="220" y="360" on="1"/>
        <pt x="320" y="360" on="1"/>
        <pt x="320" y="260" on="1"/>
      </contour>
    </TTGlyph>
    <TTGlyph name="uni2224" xMin="220" yMin="260" xMax="320" yMax="360">
      <contour>
        <pt x="220" y="260" on="1"/>
        <pt x="220" y="360" on="1"/>
        <pt x="320" y="360" on="1"/>
        <pt x="320" y="260" on="1"/>
      </contour>
    </TTGlyph>
    <TTGlyph name="uni25AF" xMin="50" yMin="0" xMax="450" yMax="700">
      <contour>
        <pt x="50" y="700" on="1"/>
        <pt x="450" y="700" on="1"/>
        <pt x="450" y="0" on="1"/>
        <pt x="50" y="0" on="1"/>
      </contour>
      <contour>
        <pt x="400" y="50" on="1"/>
        <pt x="400" y="650" on="1"/>
        <pt x="100" y="650" on="1"/>
        <pt x="100" y="50" on="1"/>
      </contour>
    </TTGlyph>
    <TTGlyph name="v" xMin="80" yMin="0" xMax="460" yMax="700">
      <contour>
        <pt x="312" y="0" on="1"/>
        <pt x="297" y="0" on="0"/>
        <pt x="267" y="10" on="0"/>
        <pt x="243" y="33" on="0"/>
        <pt x="227" y="72" on="0"/>
        <pt x="227" y="100" on="1"/>
        <pt x="227" y="326" on="1"/>
        <pt x="135" y="300" on="1"/>
        <pt x="135" y="378" on="1"/>
        <pt x="227" y="405" on="1"/>
        <pt x="227" y="625" on="1"/>
        <pt x="80" y="625" on="1"/>
        <pt x="80" y="700" on="1"/>
        <pt x="312" y="700" on="1"/>
        <pt x="312" y="429" on="1"/>
        <pt x="406" y="457" on="1"/>
        <pt x="406" y="378" on="1"/>
        <pt x="312" y="351" on="1"/>
        <pt x="312" y="105" on="1"/>
        <pt x="312" y="89" on="0"/>
        <pt x="327" y="75" on="0"/>
        <pt x="347" y="75" on="1"/>
        <pt x="460" y="75" on="1"/>
        <pt x="460" y="0" on="1"/>
      </contour>
    </TTGlyph>
    <TTGlyph name="w" xMin="92" yMin="-170" xMax="448" yMax="700">
      <contour>
        <pt x="92" y="-170" on="1"/>
        <pt x="92" y="700" on="1"/>
        <pt x="177" y="700" on="1"/>
        <pt x="177" y="480" on="1"/>
        <pt x="193" y="491" on="0"/>
        <pt x="231" y="500" on="0"/>
        <pt x="252" y="500" on="1"/>
        <pt x="278" y="500" on="1"/>
        <pt x="365" y="500" on="0"/>
        <pt x="448" y="427" on="0"/>
        <pt x="448" y="340" on="1"/>
        <pt x="448" y="160" on="1"/>
        <pt x="448" y="74" on="0"/>
        <pt x="365" y="0" on="0"/>
        <pt x="278" y="0" on="1"/>
        <pt x="177" y="0" on="1"/>
        <pt x="177" y="-170" on="1"/>
      </contour>
      <contour>
        <pt x="242" y="425" on="1"/>
        <pt x="223" y="425" on="0"/>
        <pt x="198" y="413" on="0"/>
        <pt x="183" y="397" on="0"/>
        <pt x="177" y="378" on="0"/>
        <pt x="177" y="370" on="1"/>
        <pt x="177" y="75" on="1"/>
        <pt x="288" y="75" on="1"/>
        <pt x="326" y="75" on="0"/>
        <pt x="363" y="110" on="0"/>
        <pt x="363" y="140" on="1"/>
        <pt x="363" y="360" on="1"/>
        <pt x="363" y="390" on="0"/>
        <pt x="326" y="425" on="0"/>
        <pt x="288" y="425" on="1"/>
        <pt x="242" y="425" on="1"/>
      </contour>
    </TTGlyph>
    <TTGlyph name="x" xMin="109" yMin="0" xMax="430" yMax="714">
      <contour>
        <pt x="413" y="125" on="1"/>
        <pt x="413" y="60" on="0"/>
        <pt x="335" y="0" on="0"/>
        <pt x="263" y="0" on="1"/>
        <pt x="114" y="0" on="1"/>
        <pt x="114" y="75" on="1"/>
        <pt x="273" y="75" on="1"/>
        <pt x="328" y="75" on="0"/>
        <pt x="328" y="120" on="1"/>
        <pt x="328" y="173" on="1"/>
        <pt x="328" y="218" on="0"/>
        <pt x="285" y="218" on="1"/>
        <pt x="248" y="218" on="1"/>
        <pt x="179" y="218" on="0"/>
        <pt x="109" y="277" on="0"/>
        <pt x="109" y="345" on="1"/>
        <pt x="109" y="374" on="1"/>
        <pt x="109" y="444" on="0"/>
        <pt x="187" y="500" on="0"/>
        <pt x="259" y="500" on="1"/>
        <pt x="393" y="500" on="1"/>
        <pt x="393" y="425" on="1"/>
        <pt x="249" y="425" on="1"/>
        <pt x="225" y="425" on="0"/>
        <pt x="194" y="403" on="0"/>
        <pt x="194" y="380" on="1"/>
        <pt x="194" y="344" on="1"/>
        <pt x="194" y="320" on="0"/>
        <pt x="223" y="299" on="0"/>
        <pt x="242" y="299" on="1"/>
        <pt x="276" y="299" on="1"/>
        <pt x="343" y="299" on="0"/>
        <pt x="413" y="234" on="0"/>
        <pt x="413" y="170" on="1"/>
        <pt x="413" y="125" on="1"/>
      </contour>
      <contour>
        <pt x="214" y="714" on="1"/>
        <pt x="274" y="639" on="1"/>
        <pt x="334" y="714" on="1"/>
        <pt x="430" y="714" on="1"/>
        <pt x="318" y="579" on="1"/>
        <pt x="230" y="579" on="1"/>
        <pt x="117" y="714" on="1"/>
      </contour>
    </TTGlyph>
    <TTGlyph name="y" xMin="63" yMin="-170" xMax="476" yMax="715">
      <contour>
        <pt x="180" y="-95" on="1"/>
        <pt x="203" y="-95" on="0"/>
        <pt x="228" y="-78" on="0"/>
        <pt x="234" y="-55" on="1"/>
        <pt x="248" y="0" on="1"/>
        <pt x="228" y="0" on="1"/>
        <pt x="63" y="500" on="1"/>
        <pt x="156" y="500" on="1"/>
        <pt x="281" y="91" on="1"/>
        <pt x="388" y="500" on="1"/>
        <pt x="476" y="500" on="1"/>
        <pt x="321" y="-54" on="1"/>
        <pt x="311" y="-94" on="0"/>
        <pt x="284" y="-140" on="0"/>
        <pt x="250" y="-164" on="0"/>
        <pt x="210" y="-170" on="0"/>
        <pt x="186" y="-170" on="1"/>
        <pt x="138" y="-170" on="1"/>
        <pt x="138" y="-95" on="1"/>
      </contour>
      <contour>
        <pt x="195" y="580" on="1"/>
        <pt x="299" y="715" on="1"/>
        <pt x="403" y="715" on="1"/>
        <pt x="281" y="580" on="1"/>
      </contour>
    </TTGlyph>
    <TTGlyph name="yacute" xMin="220" yMin="260" xMax="320" yMax="360">
      <contour>
        <pt x="220" y="260" on="1"/>
        <pt x="220" y="360" on="1"/>
        <pt x="320" y="360" on="1"/>
        <pt x="320" y="260" on="1"/>
      </contour>
    </TTGlyph>
    <TTGlyph name="ydieresis" xMin="220" yMin="260" xMax="320" yMax="360">
      <contour>
        <pt x="220" y="260" on="1"/>
        <pt x="220" y="360" on="1"/>
        <pt x="320" y="360" on="1"/>
        <pt x="320" y="260" on="1"/>
      </contour>
    </TTGlyph>
    <TTGlyph name="yen" xMin="220" yMin="260" xMax="320" yMax="360">
      <contour>
        <pt x="220" y="260" on="1"/>
        <pt x="220" y="360" on="1"/>
        <pt x="320" y="360" on="1"/>
        <pt x="320" y="260" on="1"/>
      </contour>
    </TTGlyph>
    <TTGlyph name="z" xMin="102" yMin="0" xMax="437" yMax="714">
      <contour>
        <pt x="198" y="74" on="1"/>
        <pt x="420" y="74" on="1"/>
        <pt x="420" y="0" on="1"/>
        <pt x="102" y="0" on="1"/>
        <pt x="102" y="80" on="1"/>
        <pt x="336" y="426" on="1"/>
        <pt x="122" y="426" on="1"/>
        <pt x="122" y="500" on="1"/>
        <pt x="430" y="500" on="1"/>
        <pt x="430" y="411" on="1"/>
      </contour>
      <contour>
        <pt x="221" y="714" on="1"/>
        <pt x="281" y="639" on="1"/>
        <pt x="341" y="714" on="1"/>
        <pt x="437" y="714" on="1"/>
        <pt x="325" y="579" on="1"/>
        <pt x="237" y="579" on="1"/>
        <pt x="124" y="714" on="1"/>
      </contour>
    </TTGlyph>
    <TTGlyph name="zcaron" xMin="220" yMin="260" xMax="320" yMax="360">
      <contour>
        <pt x="220" y="260" on="1"/>
        <pt x="220" y="360" on="1"/>
        <pt x="320" y="360" on="1"/>
        <pt x="320" y="260" on="1"/>
      </contour>
    </TTGlyph>
    <TTGlyph name="zero" xMin="30" yMin="0" xMax="510" yMax="480">
      <contour>
        <pt x="30" y="0" on="1"/>
        <pt x="30" y="480" on="1"/>
        <pt x="270" y="480" on="1"/>
        <pt x="270" y="240" on="1"/>
        <pt x="510" y="240" on="1"/>
        <pt x="510" y="0" on="1"/>
      </contour>
      <contour>
        <pt x="390" y="360" on="1"/>
        <pt x="390" y="480" on="1"/>
        <pt x="510" y="480" on="1"/>
        <pt x="510" y="360" on="1"/>
      </contour>
    </TTGlyph>
</ttFont>
